G04 ================== begin FILE IDENTIFICATION RECORD ==================*
G04 Layout Name:  D:/documents/Allegro_PRJ/BSMU/GERBER6/PCB/bsmu_h750_v1.0.brd*
G04 Film Name:    BOTTOM*
G04 File Format:  Gerber RS274X*
G04 File Origin:  Cadence Allegro 17.4-S026*
G04 Origin Date:  Mon May 15 17:11:30 2023*
G04 *
G04 Layer:  VIA CLASS/BOTTOM*
G04 Layer:  PIN/BOTTOM*
G04 Layer:  ETCH/BOTTOM*
G04 Layer:  BOARD GEOMETRY/DESIGN_OUTLINE*
G04 *
G04 Offset:    (0.000 0.000)*
G04 Mirror:    No*
G04 Mode:      Positive*
G04 Rotation:  0*
G04 FullContactRelief:  No*
G04 UndefLineWidth:     0.000*
G04 ================== end FILE IDENTIFICATION RECORD ====================*
%FSLAX55Y55*MOIN*%
%IR0*IPPOS*OFA0.00000B0.00000*MIA0B0*SFA1.00000B1.00000*%
%ADD21C,.102362*%
%ADD12C,.19685*%
%ADD11C,.125984*%
%ADD14C,.022*%
%ADD18C,.051181*%
%ADD10C,.043307*%
%ADD19R,.051181X.051181*%
%ADD22C,.07874*%
%ADD13C,.070866*%
%ADD16C,.098425*%
%ADD15C,.062992*%
%ADD20O,.03937X.082681*%
%ADD17R,.062992X.062992*%
%ADD23C,.008*%
%ADD24C,.00616*%
%ADD25C,.03*%
%ADD26C,.05*%
%ADD27C,.015*%
%ADD28C,.06*%
G75*
%LPD*%
G75*
G36*
G01X106000Y72400D02*
G02I-14500J0D01*
G37*
G36*
G01X105900Y433000D02*
G02I-14500J0D01*
G37*
G36*
G01X159782Y178717D02*
X157773Y176707D01*
X160000Y174403D01*
X162227Y176707D01*
X160218Y178717D01*
G03X159782I-218J-218D01*
G37*
G36*
G01X169782D02*
X167773Y176707D01*
X170000Y174403D01*
X172227Y176707D01*
X170218Y178717D01*
G03X169782I-218J-218D01*
G37*
G36*
G01X173150Y329030D02*
Y331872D01*
X169946Y331926D01*
X170000Y328722D01*
X172842D01*
G03X173150Y329030I0J308D01*
G37*
G36*
G01X163150D02*
Y331872D01*
X159946Y331926D01*
X160000Y328722D01*
X162842D01*
G03X163150Y329030I0J308D01*
G37*
G36*
G01X178100Y399400D02*
X180300D01*
Y368200D01*
X177710D01*
G02X177460Y368912I0J400D01*
G03X179492Y373144I-3389J4232D01*
G03X168649I-5421J0D01*
G03X170682Y368912I5422J0D01*
G02X170432Y368200I-250J-312D01*
G01X167800D01*
Y399400D01*
X170042D01*
G02X170319Y398711I0J-400D01*
G03X168649Y394798I3752J-3914D01*
G03X179492I5422J0D01*
G03X177823Y398711I-5422J0D01*
G02X178100Y399400I277J289D01*
G37*
G36*
G01X215500Y273100D02*
X248300D01*
Y267400D01*
X215500D01*
Y273100D01*
G37*
G36*
G01X224062Y141682D02*
X224622Y141122D01*
X225477Y141900D01*
X224622Y142678D01*
X224062Y142118D01*
G03Y141682I218J-218D01*
G37*
G36*
G01X227600Y136692D02*
Y135900D01*
X228754Y135846D01*
X228700Y137000D01*
X227908D01*
G03X227600Y136692I0J-308D01*
G37*
G36*
G01X238400Y169408D02*
Y170200D01*
X237246Y170254D01*
X237300Y169100D01*
X238092D01*
G03X238400Y169408I0J308D01*
G37*
G36*
G01X234618Y171062D02*
X235178Y171622D01*
X234400Y172477D01*
X233622Y171622D01*
X234182Y171062D01*
G03X234618I218J218D01*
G37*
G36*
G01X233538Y201818D02*
X232978Y202378D01*
X232123Y201600D01*
X232978Y200822D01*
X233538Y201382D01*
G03Y201818I-218J218D01*
G37*
G36*
G01X234838Y199018D02*
X234278Y199578D01*
X233423Y198800D01*
X234278Y198022D01*
X234838Y198582D01*
G03Y199018I-218J218D01*
G37*
G36*
G01X237082Y191638D02*
X236522Y191078D01*
X237300Y190223D01*
X238078Y191078D01*
X237518Y191638D01*
G03X237082I-218J-218D01*
G37*
G36*
G01X234182Y195022D02*
X233622Y194462D01*
X234400Y193607D01*
X235178Y194462D01*
X234618Y195022D01*
G03X234182I-218J-218D01*
G37*
G36*
G01X232262Y214882D02*
X232822Y214322D01*
X233677Y215100D01*
X232822Y215878D01*
X232262Y215318D01*
G03Y214882I218J-218D01*
G37*
G36*
G01X237682Y214438D02*
X237122Y213878D01*
X237900Y213023D01*
X238678Y213878D01*
X238118Y214438D01*
G03X237682I-218J-218D01*
G37*
G36*
G01X239118Y248062D02*
X239678Y248622D01*
X238900Y249477D01*
X238122Y248622D01*
X238682Y248062D01*
G03X239118I218J218D01*
G37*
G36*
G01X244992Y117900D02*
X244200D01*
X244146Y116746D01*
X245300Y116800D01*
Y117592D01*
G03X244992Y117900I-308J0D01*
G37*
G36*
G01X251162Y118182D02*
X251722Y117622D01*
X252577Y118400D01*
X251722Y119178D01*
X251162Y118618D01*
G03Y118182I218J-218D01*
G37*
G36*
G01X242262Y203182D02*
X242822Y202622D01*
X243677Y203400D01*
X242822Y204178D01*
X242262Y203618D01*
G03Y203182I218J-218D01*
G37*
G36*
G01X243418Y209762D02*
X243978Y210322D01*
X243200Y211177D01*
X242422Y210322D01*
X242982Y209762D01*
G03X243418I218J218D01*
G37*
G36*
G01X244916Y208000D02*
X246400D01*
X246468Y209136D01*
X245376Y209303D01*
X244684Y208511D01*
G03X244916Y208000I232J-203D01*
G37*
G36*
G01X239782Y211438D02*
X239222Y210878D01*
X240000Y210023D01*
X240778Y210878D01*
X240218Y211438D01*
G03X239782I-218J-218D01*
G37*
G36*
G01X247466Y204142D02*
X248258D01*
X248312Y205297D01*
X247158Y205242D01*
Y204450D01*
G03X247466Y204142I308J0D01*
G37*
G36*
G01X253418Y237762D02*
X253978Y238322D01*
X253200Y239177D01*
X252422Y238322D01*
X252982Y237762D01*
G03X253418I218J218D01*
G37*
G36*
G01X241118Y224762D02*
X241678Y225322D01*
X240900Y226177D01*
X240122Y225322D01*
X240682Y224762D01*
G03X241118I218J218D01*
G37*
G36*
G01X248118Y227062D02*
X248678Y227622D01*
X247900Y228477D01*
X247122Y227622D01*
X247682Y227062D01*
G03X248118I218J218D01*
G37*
G36*
G01X241318Y252962D02*
X241878Y253522D01*
X241100Y254377D01*
X240322Y253522D01*
X240882Y252962D01*
G03X241318I218J218D01*
G37*
G36*
G01X246508Y244000D02*
X247300D01*
X247354Y245154D01*
X246200Y245100D01*
Y244308D01*
G03X246508Y244000I308J0D01*
G37*
G36*
G01X251418Y240162D02*
X252478Y241222D01*
X251723Y242074D01*
X250833Y241423D01*
X250892Y240362D01*
G03X251418Y240162I308J17D01*
G37*
G36*
G01X248562Y262132D02*
X249122Y261572D01*
X249977Y262350D01*
X249122Y263128D01*
X248562Y262568D01*
G03Y262132I218J-218D01*
G37*
G36*
G01X251808Y259300D02*
X252600D01*
X252654Y260454D01*
X251500Y260400D01*
Y259608D01*
G03X251808Y259300I308J0D01*
G37*
G36*
G01X255818Y257062D02*
X256378Y257622D01*
X255600Y258477D01*
X254822Y257622D01*
X255382Y257062D01*
G03X255818I218J218D01*
G37*
G36*
G01X265038Y133918D02*
X264478Y134478D01*
X263623Y133700D01*
X264478Y132922D01*
X265038Y133482D01*
G03Y133918I-218J218D01*
G37*
G36*
G01X267938Y131918D02*
X267378Y132478D01*
X266523Y131700D01*
X267378Y130922D01*
X267938Y131482D01*
G03Y131918I-218J218D01*
G37*
G36*
G01X272238Y155418D02*
X271678Y155978D01*
X270823Y155200D01*
X271678Y154422D01*
X272238Y154982D01*
G03Y155418I-218J218D01*
G37*
G36*
G01X272092Y172700D02*
X271300D01*
X271246Y171546D01*
X272400Y171600D01*
Y172392D01*
G03X272092Y172700I-308J0D01*
G37*
G36*
G01X271892Y220121D02*
X271100D01*
X271046Y218966D01*
X272200Y219021D01*
Y219813D01*
G03X271892Y220121I-308J0D01*
G37*
G36*
G01X272492Y237837D02*
X271700D01*
X271646Y236683D01*
X272800Y236737D01*
Y237529D01*
G03X272492Y237837I-308J0D01*
G37*
G36*
G01X268166Y226026D02*
X267374D01*
X267319Y224872D01*
X268474Y224926D01*
Y225718D01*
G03X268166Y226026I-308J0D01*
G37*
G36*
G01X278892Y124300D02*
X278100D01*
X278046Y123146D01*
X279200Y123200D01*
Y123992D01*
G03X278892Y124300I-308J0D01*
G37*
G36*
G01X287162Y128882D02*
X287722Y128322D01*
X288577Y129100D01*
X287722Y129878D01*
X287162Y129318D01*
G03Y128882I218J-218D01*
G37*
G36*
G01X278900Y143408D02*
Y144200D01*
X277746Y144254D01*
X277800Y143100D01*
X278592D01*
G03X278900Y143408I0J308D01*
G37*
G36*
G01X276500Y141108D02*
Y141900D01*
X275346Y141954D01*
X275400Y140800D01*
X276192D01*
G03X276500Y141108I0J308D01*
G37*
G36*
G01X274400Y138708D02*
Y139500D01*
X273246Y139554D01*
X273300Y138400D01*
X274092D01*
G03X274400Y138708I0J308D01*
G37*
G36*
G01X287062Y167182D02*
X287622Y166622D01*
X288477Y167400D01*
X287622Y168178D01*
X287062Y167618D01*
G03Y167182I218J-218D01*
G37*
G36*
G01X289708Y173400D02*
X290500D01*
X290554Y174554D01*
X289400Y174500D01*
Y173708D01*
G03X289708Y173400I308J0D01*
G37*
G36*
G01X275982Y222327D02*
X275422Y221767D01*
X276200Y220912D01*
X276978Y221767D01*
X276418Y222327D01*
G03X275982I-218J-218D01*
G37*
G36*
G01X286532Y238924D02*
X285972Y239484D01*
X285117Y238706D01*
X285972Y237928D01*
X286532Y238488D01*
G03Y238924I-218J218D01*
G37*
G36*
G01X280792Y245711D02*
X280000D01*
X279946Y244557D01*
X281100Y244611D01*
Y245403D01*
G03X280792Y245711I-308J0D01*
G37*
G36*
G01X304362Y133482D02*
X304922Y132922D01*
X305777Y133700D01*
X304922Y134478D01*
X304362Y133918D01*
G03Y133482I218J-218D01*
G37*
G36*
G01X295362Y131482D02*
X295922Y130922D01*
X296777Y131700D01*
X295922Y132478D01*
X295362Y131918D01*
G03Y131482I218J-218D01*
G37*
G36*
G01X302200Y127408D02*
Y128200D01*
X301046Y128254D01*
X301100Y127100D01*
X301892D01*
G03X302200Y127408I0J308D01*
G37*
G36*
G01X294038Y141718D02*
X293478Y142278D01*
X292623Y141500D01*
X293478Y140722D01*
X294038Y141282D01*
G03Y141718I-218J218D01*
G37*
G36*
G01X293362Y154982D02*
X293922Y154422D01*
X294777Y155200D01*
X293922Y155978D01*
X293362Y155418D01*
G03Y154982I218J-218D01*
G37*
G36*
G01X298900Y187008D02*
Y187800D01*
X297746Y187854D01*
X297800Y186700D01*
X298592D01*
G03X298900Y187008I0J308D01*
G37*
G36*
G01X306318Y215462D02*
X306878Y216022D01*
X306100Y216877D01*
X305322Y216022D01*
X305882Y215462D01*
G03X306318I218J218D01*
G37*
G36*
G01X308518Y213062D02*
X309078Y213622D01*
X308300Y214477D01*
X307522Y213622D01*
X308082Y213062D01*
G03X308518I218J218D01*
G37*
G36*
G01X312200Y217208D02*
Y218000D01*
X311046Y218054D01*
X311100Y216900D01*
X311892D01*
G03X312200Y217208I0J308D01*
G37*
G36*
G01X310208Y220500D02*
X311000D01*
X311054Y221654D01*
X309900Y221600D01*
Y220808D01*
G03X310208Y220500I308J0D01*
G37*
G36*
G01X337892Y124200D02*
X337100D01*
X337046Y123046D01*
X338200Y123100D01*
Y123892D01*
G03X337892Y124200I-308J0D01*
G37*
G36*
G01X339139Y153182D02*
X339700Y152622D01*
X340554Y153400D01*
X339700Y154178D01*
X339139Y153618D01*
G03Y153182I218J-218D01*
G37*
G36*
G01X329538Y170918D02*
X328978Y171478D01*
X328123Y170700D01*
X328978Y169922D01*
X329538Y170482D01*
G03Y170918I-218J218D01*
G37*
G36*
G01X338792Y176800D02*
X338000D01*
X337946Y175646D01*
X339100Y175700D01*
Y176492D01*
G03X338792Y176800I-308J0D01*
G37*
G36*
G01X337338Y172918D02*
X336778Y173478D01*
X335923Y172700D01*
X336778Y171922D01*
X337338Y172482D01*
G03Y172918I-218J218D01*
G37*
G36*
G01X340718Y189048D02*
X341278Y189608D01*
X340500Y190463D01*
X339722Y189608D01*
X340282Y189048D01*
G03X340718I218J218D01*
G37*
G36*
G01X336600Y188392D02*
Y187600D01*
X337754Y187546D01*
X337700Y188700D01*
X336908D01*
G03X336600Y188392I0J-308D01*
G37*
G36*
G01X327044Y188200D02*
X327605Y187640D01*
X328459Y188418D01*
X327605Y189195D01*
X327044Y188636D01*
G03Y188200I218J-218D01*
G37*
G36*
G01X339773Y214483D02*
X339278Y214978D01*
X338400Y214200D01*
X339278Y213422D01*
X339773Y213917D01*
G03Y214483I-283J283D01*
G37*
G36*
G01Y219983D02*
X339278Y220478D01*
X338400Y219700D01*
X339278Y218922D01*
X339773Y219417D01*
G03Y219983I-283J283D01*
G37*
G36*
G01X339823Y217233D02*
X339328Y217728D01*
X338450Y216950D01*
X339328Y216172D01*
X339823Y216667D01*
G03Y217233I-283J283D01*
G37*
G36*
G01X326662Y226782D02*
X327222Y226222D01*
X328077Y227000D01*
X327222Y227778D01*
X326662Y227218D01*
G03Y226782I218J-218D01*
G37*
G36*
G01X339773Y222844D02*
X339278Y223338D01*
X338400Y222561D01*
X339278Y221783D01*
X339773Y222278D01*
G03Y222844I-283J283D01*
G37*
G36*
G01X341815Y248341D02*
X341255Y248900D01*
X340400Y248123D01*
X341255Y247345D01*
X341815Y247905D01*
G03Y248341I-218J218D01*
G37*
G36*
G01X338838Y241218D02*
X338278Y241778D01*
X337423Y241000D01*
X338278Y240222D01*
X338838Y240782D01*
G03Y241218I-218J218D01*
G37*
G36*
G01X340988Y244100D02*
X339500D01*
X339432Y242964D01*
X340523Y242797D01*
X341219Y243589D01*
G03X340988Y244100I-231J203D01*
G37*
G36*
G01X340918Y341737D02*
X342927Y343746D01*
X340700Y346050D01*
X338473Y343746D01*
X340482Y341737D01*
G03X340918I218J218D01*
G37*
G36*
G01X330918D02*
X332927Y343746D01*
X330700Y346050D01*
X328473Y343746D01*
X330482Y341737D01*
G03X330918I218J218D01*
G37*
G36*
G01X346618Y126762D02*
X347178Y127322D01*
X346400Y128177D01*
X345622Y127322D01*
X346182Y126762D01*
G03X346618I218J218D01*
G37*
G36*
G01X353062Y140482D02*
X353622Y139922D01*
X354477Y140700D01*
X353622Y141478D01*
X353062Y140918D01*
G03Y140482I218J-218D01*
G37*
G36*
G01X357408Y139200D02*
X358200D01*
X358254Y140354D01*
X357100Y140300D01*
Y139508D01*
G03X357408Y139200I308J0D01*
G37*
G36*
G01X351496Y142788D02*
X352288D01*
X352343Y143943D01*
X351188Y143888D01*
Y143096D01*
G03X351496Y142788I308J0D01*
G37*
G36*
G01X352919Y149882D02*
X353479Y149322D01*
X354334Y150100D01*
X353479Y150878D01*
X352919Y150318D01*
G03Y149882I218J-218D01*
G37*
G36*
G01X340912Y150832D02*
X341472Y150272D01*
X342327Y151050D01*
X341472Y151828D01*
X340912Y151268D01*
G03Y150832I218J-218D01*
G37*
G36*
G01X354474Y163705D02*
X355034Y164266D01*
X354257Y165120D01*
X353479Y164266D01*
X354039Y163705D01*
G03X354474I218J218D01*
G37*
G36*
G01X351817Y179573D02*
X351322Y179078D01*
X352100Y178200D01*
X352878Y179078D01*
X352383Y179573D01*
G03X351817I-283J-283D01*
G37*
G36*
G01X346683Y183208D02*
X347178Y183703D01*
X346400Y184581D01*
X345622Y183703D01*
X346117Y183208D01*
G03X346683I283J283D01*
G37*
G36*
G01X353626Y208818D02*
X353066Y209378D01*
X352211Y208600D01*
X353066Y207822D01*
X353626Y208382D01*
G03Y208818I-218J218D01*
G37*
G36*
G01X356127Y213917D02*
X356622Y213422D01*
X357500Y214200D01*
X356622Y214978D01*
X356127Y214483D01*
G03Y213917I283J-283D01*
G37*
G36*
G01X347721Y211800D02*
X347160Y212360D01*
X346306Y211583D01*
X347160Y210805D01*
X347721Y211365D01*
G03Y211800I-218J218D01*
G37*
G36*
G01X343073Y232783D02*
X342578Y233278D01*
X341700Y232500D01*
X342578Y231722D01*
X343073Y232217D01*
G03Y232783I-283J283D01*
G37*
G36*
G01X349973Y225083D02*
X349478Y225578D01*
X348600Y224800D01*
X349478Y224022D01*
X349973Y224517D01*
G03Y225083I-283J283D01*
G37*
G36*
G01X343717Y236073D02*
X343222Y235578D01*
X344000Y234700D01*
X344778Y235578D01*
X344283Y236073D01*
G03X343717I-283J-283D01*
G37*
G36*
G01X345838Y240618D02*
X345278Y241178D01*
X344423Y240400D01*
X345278Y239622D01*
X345838Y240182D01*
G03Y240618I-218J218D01*
G37*
G36*
G01X343784Y246118D02*
X343223Y246678D01*
X342369Y245900D01*
X343223Y245122D01*
X343784Y245682D01*
G03Y246118I-218J218D01*
G37*
G36*
G01X356856Y274576D02*
X357416Y274016D01*
X358271Y274794D01*
X357416Y275571D01*
X356856Y275011D01*
G03Y274576I218J-218D01*
G37*
G36*
G01X354887Y277507D02*
X355448Y276948D01*
X356302Y277725D01*
X355448Y278503D01*
X354887Y277943D01*
G03Y277507I218J-218D01*
G37*
G36*
G01X373238Y110018D02*
X372678Y110578D01*
X371823Y109800D01*
X372678Y109022D01*
X373238Y109582D01*
G03Y110018I-218J218D01*
G37*
G36*
G01X360418Y141062D02*
X360978Y141622D01*
X360200Y142477D01*
X359422Y141622D01*
X359982Y141062D01*
G03X360418I218J218D01*
G37*
G36*
G01X361339Y150731D02*
X362131D01*
X362185Y151885D01*
X361031Y151831D01*
Y151039D01*
G03X361339Y150731I308J0D01*
G37*
G36*
G01X363307Y148400D02*
X364099D01*
X364154Y149554D01*
X362999Y149500D01*
Y148708D01*
G03X363307Y148400I308J0D01*
G37*
G36*
G01X362973Y167183D02*
X362478Y167678D01*
X361600Y166900D01*
X362478Y166122D01*
X362973Y166617D01*
G03Y167183I-283J283D01*
G37*
G36*
G01X365773Y169183D02*
X365278Y169678D01*
X364400Y168900D01*
X365278Y168122D01*
X365773Y168617D01*
G03Y169183I-283J283D01*
G37*
G36*
G01X360723Y164783D02*
X360228Y165278D01*
X359350Y164500D01*
X360228Y163722D01*
X360723Y164217D01*
G03Y164783I-283J283D01*
G37*
G36*
G01X373278Y204783D02*
X372782Y205278D01*
X371905Y204500D01*
X372782Y203722D01*
X373278Y204217D01*
G03Y204783I-283J283D01*
G37*
G36*
G01X360527Y219417D02*
X361022Y218922D01*
X361900Y219700D01*
X361022Y220478D01*
X360527Y219983D01*
G03Y219417I283J-283D01*
G37*
G36*
G01X358177Y216667D02*
X358672Y216172D01*
X359550Y216950D01*
X358672Y217728D01*
X358177Y217233D01*
G03Y216667I283J-283D01*
G37*
G36*
G01X363227Y222278D02*
X363722Y221783D01*
X364600Y222561D01*
X363722Y223338D01*
X363227Y222844D01*
G03Y222278I283J-283D01*
G37*
G36*
G01X371278Y240983D02*
X370782Y241478D01*
X369905Y240700D01*
X370782Y239922D01*
X371278Y240417D01*
G03Y240983I-283J283D01*
G37*
G36*
G01X370338Y265518D02*
X369778Y266078D01*
X368923Y265300D01*
X369778Y264522D01*
X370338Y265082D01*
G03Y265518I-218J218D01*
G37*
G36*
G01X364538Y267318D02*
X363978Y267878D01*
X363123Y267100D01*
X363978Y266322D01*
X364538Y266882D01*
G03Y267318I-218J218D01*
G37*
G36*
G01X371382Y278338D02*
X370822Y277778D01*
X371600Y276923D01*
X372378Y277778D01*
X371818Y278338D01*
G03X371382I-218J-218D01*
G37*
G36*
G01X363682Y278538D02*
X363122Y277978D01*
X363900Y277123D01*
X364678Y277978D01*
X364118Y278538D01*
G03X363682I-218J-218D01*
G37*
G36*
G01X366874D02*
X366314Y277978D01*
X367092Y277123D01*
X367870Y277978D01*
X367310Y278538D01*
G03X366874I-218J-218D01*
G37*
G36*
G01X371818Y290062D02*
X372378Y290622D01*
X371600Y291477D01*
X370822Y290622D01*
X371382Y290062D01*
G03X371818I218J218D01*
G37*
G36*
G01X364118Y290362D02*
X364678Y290922D01*
X363900Y291777D01*
X363122Y290922D01*
X363682Y290362D01*
G03X364118I218J218D01*
G37*
G36*
G01X367310Y290270D02*
X367870Y290830D01*
X367092Y291685D01*
X366314Y290830D01*
X366874Y290270D01*
G03X367310I218J218D01*
G37*
G36*
G01X377392Y114200D02*
X376600D01*
X376546Y113046D01*
X377700Y113100D01*
Y113892D01*
G03X377392Y114200I-308J0D01*
G37*
G36*
G01X375562Y117782D02*
X376122Y117222D01*
X376977Y118000D01*
X376122Y118778D01*
X375562Y118218D01*
G03Y117782I218J-218D01*
G37*
G36*
G01X376438Y107918D02*
X375878Y108478D01*
X375023Y107700D01*
X375878Y106922D01*
X376438Y107482D01*
G03Y107918I-218J218D01*
G37*
G36*
G01X382392Y135800D02*
X381600D01*
X381546Y134646D01*
X382700Y134700D01*
Y135492D01*
G03X382392Y135800I-308J0D01*
G37*
G36*
G01X380292Y139000D02*
X379500D01*
X379446Y137846D01*
X380600Y137900D01*
Y138692D01*
G03X380292Y139000I-308J0D01*
G37*
G36*
G01X381533Y171573D02*
X381038Y171078D01*
X381816Y170200D01*
X382593Y171078D01*
X382099Y171573D01*
G03X381533I-283J-283D01*
G37*
G36*
G01X392338Y215418D02*
X391778Y215978D01*
X390923Y215200D01*
X391778Y214422D01*
X392338Y214982D01*
G03Y215418I-218J218D01*
G37*
G36*
G01X383502Y235473D02*
X383007Y234978D01*
X383784Y234100D01*
X384562Y234978D01*
X384067Y235473D01*
G03X383502I-283J-283D01*
G37*
G36*
G01X380547Y234800D02*
X379847D01*
X379776Y233629D01*
X380947Y233700D01*
Y234400D01*
G03X380547Y234800I-400J0D01*
G37*
G36*
G01X376610Y242400D02*
X375910D01*
X375840Y241229D01*
X377010Y241300D01*
Y242000D01*
G03X376610Y242400I-400J0D01*
G37*
G36*
G01X378400Y246300D02*
X377700D01*
X377629Y245129D01*
X378800Y245200D01*
Y245900D01*
G03X378400Y246300I-400J0D01*
G37*
G36*
G01X379582Y272822D02*
X379022Y272262D01*
X379800Y271407D01*
X380578Y272262D01*
X380018Y272822D01*
G03X379582I-218J-218D01*
G37*
G36*
G01X383582Y268638D02*
X383022Y268078D01*
X383800Y267223D01*
X384578Y268078D01*
X384018Y268638D01*
G03X383582I-218J-218D01*
G37*
G36*
G01X385535Y272191D02*
X384975Y271630D01*
X385753Y270776D01*
X386530Y271630D01*
X385971Y272191D01*
G03X385535I-218J-218D01*
G37*
G36*
G01X380018Y275162D02*
X380578Y275722D01*
X379800Y276577D01*
X379022Y275722D01*
X379582Y275162D01*
G03X380018I218J218D01*
G37*
G36*
G01X384018Y280962D02*
X384578Y281522D01*
X383800Y282377D01*
X383022Y281522D01*
X383582Y280962D01*
G03X384018I218J218D01*
G37*
G36*
G01X408037Y152707D02*
X408597Y152148D01*
X409452Y152925D01*
X408597Y153703D01*
X408037Y153143D01*
G03Y152707I218J-218D01*
G37*
G36*
G01X407624Y140862D02*
X408184Y141422D01*
X407406Y142277D01*
X406629Y141422D01*
X407188Y140862D01*
G03X407624I218J218D01*
G37*
G36*
G01X402238Y221518D02*
X401678Y222078D01*
X400823Y221300D01*
X401678Y220522D01*
X402238Y221082D01*
G03Y221518I-218J218D01*
G37*
G36*
G01X397538Y219318D02*
X396978Y219878D01*
X396123Y219100D01*
X396978Y218322D01*
X397538Y218882D01*
G03Y219318I-218J218D01*
G37*
G36*
G01X404238Y227518D02*
X403678Y228078D01*
X402823Y227300D01*
X403678Y226522D01*
X404238Y227082D01*
G03Y227518I-218J218D01*
G37*
G36*
G01X401283Y273139D02*
X400723Y272578D01*
X401501Y271724D01*
X402278Y272578D01*
X401719Y273139D01*
G03X401283I-218J-218D01*
G37*
G36*
G01X407218Y400162D02*
X407778Y400722D01*
X407000Y401577D01*
X406222Y400722D01*
X406782Y400162D01*
G03X407218I218J218D01*
G37*
G36*
G01X413418Y129362D02*
X413978Y129922D01*
X413200Y130777D01*
X412422Y129922D01*
X412982Y129362D01*
G03X413418I218J218D01*
G37*
G36*
G01X416918Y127954D02*
X417478Y128514D01*
X416700Y129369D01*
X415922Y128514D01*
X416482Y127954D01*
G03X416918I218J218D01*
G37*
G36*
G01X410408Y126600D02*
X411200D01*
X411254Y127754D01*
X410100Y127700D01*
Y126908D01*
G03X410408Y126600I308J0D01*
G37*
G36*
G01X415462Y134582D02*
X416022Y134022D01*
X416877Y134800D01*
X416022Y135578D01*
X415462Y135018D01*
G03Y134582I218J-218D01*
G37*
G36*
G01X422062Y138982D02*
X422622Y138422D01*
X423477Y139200D01*
X422622Y139978D01*
X422062Y139418D01*
G03Y138982I218J-218D01*
G37*
G36*
G01X424462Y141082D02*
X425022Y140522D01*
X425877Y141300D01*
X425022Y142078D01*
X424462Y141518D01*
G03Y141082I218J-218D01*
G37*
G36*
G01X418662Y136682D02*
X419222Y136122D01*
X420077Y136900D01*
X419222Y137678D01*
X418662Y137118D01*
G03Y136682I218J-218D01*
G37*
G36*
G01X411300Y169400D02*
Y170100D01*
X410129Y170171D01*
X410200Y169000D01*
X410900D01*
G03X411300Y169400I0J400D01*
G37*
G36*
G01X422782Y188438D02*
X422222Y187878D01*
X423000Y187023D01*
X423778Y187878D01*
X423218Y188438D01*
G03X422782I-218J-218D01*
G37*
G36*
G01X421100Y186108D02*
Y186900D01*
X419946Y186954D01*
X420000Y185800D01*
X420792D01*
G03X421100Y186108I0J308D01*
G37*
G36*
G01X413300Y171400D02*
Y172100D01*
X412129Y172171D01*
X412200Y171000D01*
X412900D01*
G03X413300Y171400I0J400D01*
G37*
G36*
G01X421238Y183718D02*
X420678Y184278D01*
X419823Y183500D01*
X420678Y182722D01*
X421238Y183282D01*
G03Y183718I-218J218D01*
G37*
G36*
G01X425882Y189938D02*
X425322Y189378D01*
X426100Y188523D01*
X426878Y189378D01*
X426318Y189938D01*
G03X425882I-218J-218D01*
G37*
G36*
G01X422100Y226100D02*
X421400D01*
X421329Y224929D01*
X422500Y225000D01*
Y225700D01*
G03X422100Y226100I-400J0D01*
G37*
G36*
G01X413827Y231117D02*
X414322Y230622D01*
X415200Y231400D01*
X414322Y232178D01*
X413827Y231683D01*
G03Y231117I283J-283D01*
G37*
G36*
G01X416662Y276082D02*
X417222Y275522D01*
X418077Y276300D01*
X417222Y277078D01*
X416662Y276518D01*
G03Y276082I218J-218D01*
G37*
G36*
G01X412135Y275600D02*
X411343D01*
X411289Y274446D01*
X412443Y274500D01*
Y275292D01*
G03X412135Y275600I-308J0D01*
G37*
G36*
G01X414489Y297436D02*
Y296644D01*
X415643Y296590D01*
X415589Y297745D01*
X414797D01*
G03X414489Y297436I0J-308D01*
G37*
G36*
G01X411800Y297192D02*
Y296400D01*
X412954Y296346D01*
X412900Y297500D01*
X412108D01*
G03X411800Y297192I0J-308D01*
G37*
G36*
G01X411600Y389220D02*
Y388428D01*
X412754Y388373D01*
X412700Y389528D01*
X411908D01*
G03X411600Y389220I0J-308D01*
G37*
G36*
G01X423942Y421323D02*
X425534Y422915D01*
X423724Y424802D01*
X421915Y422915D01*
X423507Y421323D01*
G03X423942I218J218D01*
G37*
G36*
G01X416068D02*
X417660Y422915D01*
X415850Y424802D01*
X414041Y422915D01*
X415633Y421323D01*
G03X416068I218J218D01*
G37*
G36*
G01X430518Y150362D02*
X431078Y150922D01*
X430300Y151777D01*
X429522Y150922D01*
X430082Y150362D01*
G03X430518I218J218D01*
G37*
G36*
G01X433718Y149262D02*
X434278Y149822D01*
X433500Y150677D01*
X432722Y149822D01*
X433282Y149262D01*
G03X433718I218J218D01*
G37*
G36*
G01X427400Y146892D02*
Y146100D01*
X428554Y146046D01*
X428500Y147200D01*
X427708D01*
G03X427400Y146892I0J-308D01*
G37*
G36*
G01Y144192D02*
Y143400D01*
X428554Y143346D01*
X428500Y144500D01*
X427708D01*
G03X427400Y144192I0J-308D01*
G37*
G36*
G01X434838Y155418D02*
X434278Y155978D01*
X433423Y155200D01*
X434278Y154422D01*
X434838Y154982D01*
G03Y155418I-218J218D01*
G37*
G36*
G01X431351Y154408D02*
Y155200D01*
X430196Y155254D01*
X430251Y154100D01*
X431043D01*
G03X431351Y154408I0J308D01*
G37*
G36*
G01X426500Y271394D02*
Y270602D01*
X427654Y270547D01*
X427600Y271702D01*
X426808D01*
G03X426500Y271394I0J-308D01*
G37*
G36*
G01X430438Y261018D02*
X429878Y261578D01*
X429023Y260800D01*
X429878Y260022D01*
X430438Y260582D01*
G03Y261018I-218J218D01*
G37*
G36*
G01X434900Y269092D02*
Y268300D01*
X436054Y268246D01*
X436000Y269400D01*
X435208D01*
G03X434900Y269092I0J-308D01*
G37*
G36*
G01X431400Y269192D02*
Y268400D01*
X432554Y268346D01*
X432500Y269500D01*
X431708D01*
G03X431400Y269192I0J-308D01*
G37*
G36*
G01X443682Y271138D02*
X443122Y270578D01*
X443900Y269723D01*
X444678Y270578D01*
X444118Y271138D01*
G03X443682I-218J-218D01*
G37*
G36*
G01X431792Y290400D02*
X431000D01*
X430946Y289246D01*
X432100Y289300D01*
Y290092D01*
G03X431792Y290400I-308J0D01*
G37*
G36*
G01X428132Y291688D02*
X427572Y291128D01*
X428350Y290273D01*
X429128Y291128D01*
X428568Y291688D01*
G03X428132I-218J-218D01*
G37*
G36*
G01X441938Y291718D02*
X441378Y292278D01*
X440523Y291500D01*
X441378Y290722D01*
X441938Y291282D01*
G03Y291718I-218J218D01*
G37*
G36*
G01X457838Y212818D02*
X457278Y213378D01*
X456423Y212600D01*
X457278Y211822D01*
X457838Y212382D01*
G03Y212818I-218J218D01*
G37*
G36*
G01X460600Y216598D02*
X459808D01*
X459754Y215444D01*
X460908Y215498D01*
Y216290D01*
G03X460600Y216598I-308J0D01*
G37*
G36*
G01X457538Y217918D02*
X456978Y218478D01*
X456123Y217700D01*
X456978Y216922D01*
X457538Y217482D01*
G03Y217918I-218J218D01*
G37*
G36*
G01X459292Y221000D02*
X458500D01*
X458446Y219846D01*
X459600Y219900D01*
Y220692D01*
G03X459292Y221000I-308J0D01*
G37*
G36*
G01X465382Y151738D02*
X464822Y151178D01*
X465600Y150323D01*
X466378Y151178D01*
X465818Y151738D01*
G03X465382I-218J-218D01*
G37*
G36*
G01X462882Y148738D02*
X462322Y148178D01*
X463100Y147323D01*
X463878Y148178D01*
X463318Y148738D01*
G03X462882I-218J-218D01*
G37*
G36*
G01X472618Y153058D02*
X473178Y153618D01*
X472400Y154473D01*
X471622Y153618D01*
X472182Y153058D01*
G03X472618I218J218D01*
G37*
G36*
G01Y197362D02*
X473178Y197922D01*
X472400Y198777D01*
X471622Y197922D01*
X472182Y197362D01*
G03X472618I218J218D01*
G37*
G36*
G01X465462Y224082D02*
X466022Y223522D01*
X466877Y224300D01*
X466022Y225078D01*
X465462Y224518D01*
G03Y224082I218J-218D01*
G37*
G36*
G01X475862Y225182D02*
X476422Y224622D01*
X477277Y225400D01*
X476422Y226178D01*
X475862Y225618D01*
G03Y225182I218J-218D01*
G37*
G36*
G01X469440Y252613D02*
X470384Y252437D01*
X471075Y253319D01*
X470222Y254078D01*
X469278Y253134D01*
G03X469440Y252613I218J-218D01*
G37*
G36*
G01X493438Y98818D02*
X492878Y99378D01*
X492023Y98600D01*
X492878Y97822D01*
X493438Y98382D01*
G03Y98818I-218J218D01*
G37*
G36*
G01X479988Y154614D02*
X479428Y155174D01*
X478573Y154396D01*
X479428Y153618D01*
X479988Y154178D01*
G03Y154614I-218J218D01*
G37*
G36*
G01X481582Y199638D02*
X481022Y199078D01*
X481800Y198223D01*
X482578Y199078D01*
X482018Y199638D01*
G03X481582I-218J-218D01*
G37*
G36*
G01X478482Y199938D02*
X477922Y199378D01*
X478700Y198523D01*
X479478Y199378D01*
X478918Y199938D01*
G03X478482I-218J-218D01*
G37*
G36*
G01X480900Y226295D02*
Y225503D01*
X482054Y225448D01*
X482000Y226603D01*
X481208D01*
G03X480900Y226295I0J-308D01*
G37*
G36*
G01X486700Y227492D02*
Y226700D01*
X487854Y226646D01*
X487800Y227800D01*
X487008D01*
G03X486700Y227492I0J-308D01*
G37*
G36*
G01X478918Y252262D02*
X479478Y252822D01*
X478700Y253677D01*
X477922Y252822D01*
X478482Y252262D01*
G03X478918I218J218D01*
G37*
G36*
G01X491282Y271238D02*
X490722Y270678D01*
X491500Y269823D01*
X492278Y270678D01*
X491718Y271238D01*
G03X491282I-218J-218D01*
G37*
G36*
G01X480308Y257700D02*
X481100D01*
X481154Y258854D01*
X480000Y258800D01*
Y258008D01*
G03X480308Y257700I308J0D01*
G37*
G36*
G01X487347Y256300D02*
X488139D01*
X488193Y257454D01*
X487039Y257400D01*
Y256608D01*
G03X487347Y256300I308J0D01*
G37*
G36*
G01X491100Y278208D02*
Y279000D01*
X489946Y279054D01*
X490000Y277900D01*
X490792D01*
G03X491100Y278208I0J308D01*
G37*
G36*
G01X509662Y156982D02*
X510222Y156422D01*
X511077Y157200D01*
X510222Y157978D01*
X509662Y157418D01*
G03Y156982I218J-218D01*
G37*
G36*
G01X509927Y180017D02*
X510422Y179522D01*
X511300Y180300D01*
X510422Y181078D01*
X509927Y180583D01*
G03Y180017I283J-283D01*
G37*
G36*
G01X510982Y181638D02*
X510422Y181078D01*
X511200Y180223D01*
X511978Y181078D01*
X511418Y181638D01*
G03X510982I-218J-218D01*
G37*
G36*
G01X508408Y182600D02*
X509200D01*
X509254Y183754D01*
X508100Y183700D01*
Y182908D01*
G03X508408Y182600I308J0D01*
G37*
G36*
G01X496718Y208562D02*
X497278Y209122D01*
X496500Y209977D01*
X495722Y209122D01*
X496282Y208562D01*
G03X496718I218J218D01*
G37*
G36*
G01X526283Y182227D02*
X526778Y182722D01*
X526000Y183600D01*
X525222Y182722D01*
X525717Y182227D01*
G03X526283I283J283D01*
G37*
G36*
G01X525782Y184838D02*
X525222Y184278D01*
X526000Y183423D01*
X526778Y184278D01*
X526218Y184838D01*
G03X525782I-218J-218D01*
G37*
G36*
G01X520583Y182227D02*
X521078Y182722D01*
X520300Y183600D01*
X519522Y182722D01*
X520017Y182227D01*
G03X520583I283J283D01*
G37*
G36*
G01X520082Y184838D02*
X519522Y184278D01*
X520300Y183423D01*
X521078Y184278D01*
X520518Y184838D01*
G03X520082I-218J-218D01*
G37*
G36*
G01X517583Y178927D02*
X518078Y179422D01*
X517300Y180300D01*
X516522Y179422D01*
X517017Y178927D01*
G03X517583I283J283D01*
G37*
G36*
G01X517082Y181538D02*
X516522Y180978D01*
X517300Y180123D01*
X518078Y180978D01*
X517518Y181538D01*
G03X517082I-218J-218D01*
G37*
G36*
G01X514483Y182227D02*
X514978Y182722D01*
X514200Y183600D01*
X513422Y182722D01*
X513917Y182227D01*
G03X514483I283J283D01*
G37*
G36*
G01X513982Y184838D02*
X513422Y184278D01*
X514200Y183423D01*
X514978Y184278D01*
X514418Y184838D01*
G03X513982I-218J-218D01*
G37*
G36*
G01X528582Y181438D02*
X528022Y180878D01*
X528800Y180023D01*
X529578Y180878D01*
X529018Y181438D01*
G03X528582I-218J-218D01*
G37*
G36*
G01X523383Y178927D02*
X523878Y179422D01*
X523100Y180300D01*
X522322Y179422D01*
X522817Y178927D01*
G03X523383I283J283D01*
G37*
G36*
G01X522882Y181538D02*
X522322Y180978D01*
X523100Y180123D01*
X523878Y180978D01*
X523318Y181538D01*
G03X522882I-218J-218D01*
G37*
G36*
G01X515693Y214116D02*
X516485D01*
X516539Y215270D01*
X515385Y215216D01*
Y214424D01*
G03X515693Y214116I308J0D01*
G37*
G36*
G01X527034Y214542D02*
Y215334D01*
X525879Y215388D01*
X525934Y214234D01*
X526726D01*
G03X527034Y214542I0J308D01*
G37*
G36*
G01X512012Y214732D02*
X512572Y214172D01*
X513427Y214950D01*
X512572Y215728D01*
X512012Y215168D01*
G03Y214732I218J-218D01*
G37*
G36*
G01X523884Y214424D02*
Y215216D01*
X522730Y215270D01*
X522784Y214116D01*
X523576D01*
G03X523884Y214424I0J308D01*
G37*
G36*
G01X519852Y213878D02*
X520412Y214438D01*
X519635Y215293D01*
X518857Y214438D01*
X519417Y213878D01*
G03X519852I218J218D01*
G37*
G36*
G01X515708Y258600D02*
X516500D01*
X516554Y259754D01*
X515400Y259700D01*
Y258908D01*
G03X515708Y258600I308J0D01*
G37*
G36*
G01X540282Y181438D02*
X539722Y180878D01*
X540500Y180023D01*
X541278Y180878D01*
X540718Y181438D01*
G03X540282I-218J-218D01*
G37*
G36*
G01X541600Y179400D02*
Y180100D01*
X540429Y180171D01*
X540500Y179000D01*
X541200D01*
G03X541600Y179400I0J400D01*
G37*
G36*
G01X534182Y181338D02*
X533622Y180778D01*
X534400Y179923D01*
X535178Y180778D01*
X534618Y181338D01*
G03X534182I-218J-218D01*
G37*
G36*
G01X535500Y178600D02*
Y180000D01*
X534355Y180089D01*
X534400Y179300D01*
X535100Y178600D01*
X535500D01*
G37*
G36*
G01X529900Y179400D02*
Y180100D01*
X528729Y180171D01*
X528800Y179000D01*
X529500D01*
G03X529900Y179400I0J400D01*
G37*
G36*
G01X531983Y182327D02*
X532478Y182822D01*
X531700Y183700D01*
X530922Y182822D01*
X531417Y182327D01*
G03X531983I283J283D01*
G37*
G36*
G01X532492Y184700D02*
X531700D01*
X531646Y183546D01*
X532800Y183600D01*
Y184392D01*
G03X532492Y184700I-308J0D01*
G37*
G36*
G01X538083Y182127D02*
X538578Y182622D01*
X537800Y183500D01*
X537022Y182622D01*
X537517Y182127D01*
G03X538083I283J283D01*
G37*
G36*
G01X538692Y184500D02*
X537800D01*
X537742Y183349D01*
X538898Y183361D01*
X538998Y184153D01*
G03X538692Y184500I-306J39D01*
G37*
G36*
G01X533333Y214641D02*
Y215433D01*
X532179Y215487D01*
X532233Y214333D01*
X533025D01*
G03X533333Y214641I0J308D01*
G37*
G36*
G01X542782Y214726D02*
Y215518D01*
X541628Y215572D01*
X541682Y214418D01*
X542474D01*
G03X542782Y214726I0J308D01*
G37*
G36*
G01X536483Y214725D02*
Y215517D01*
X535328Y215572D01*
X535383Y214417D01*
X536175D01*
G03X536483Y214725I0J308D01*
G37*
G36*
G01X530183Y214591D02*
Y215383D01*
X529029Y215438D01*
X529083Y214283D01*
X529875D01*
G03X530183Y214591I0J308D01*
G37*
G36*
G01X539632Y214808D02*
Y215600D01*
X538478Y215654D01*
X538532Y214500D01*
X539324D01*
G03X539632Y214808I0J308D01*
G37*
G36*
G01X545932Y214839D02*
Y215632D01*
X544777Y215686D01*
X544832Y214532D01*
X545624D01*
G03X545932Y214839I0J308D01*
G37*
G36*
G01X549081Y214827D02*
Y215619D01*
X547927Y215673D01*
X547981Y214519D01*
X548773D01*
G03X549081Y214827I0J308D01*
G37*
G36*
G01X559317Y229773D02*
X558822Y229278D01*
X559600Y228400D01*
X560378Y229278D01*
X559883Y229773D01*
G03X559317I-283J-283D01*
G37*
G36*
G01X562500Y232700D02*
Y232000D01*
X563671Y231929D01*
X563600Y233100D01*
X562900D01*
G03X562500Y232700I0J-400D01*
G37*
G36*
G01X563788Y313568D02*
X563227Y314128D01*
X562373Y313350D01*
X563227Y312573D01*
X563788Y313133D01*
G03Y313568I-218J218D01*
G37*
G36*
G01X551338Y315618D02*
X550778Y316178D01*
X549923Y315400D01*
X550778Y314622D01*
X551338Y315182D01*
G03Y315618I-218J218D01*
G37*
G36*
G01X569150Y138058D02*
Y138850D01*
X567995Y138905D01*
X568050Y137750D01*
X568842D01*
G03X569150Y138058I0J308D01*
G37*
G36*
G01X577382Y162338D02*
X576822Y161778D01*
X577600Y160923D01*
X578378Y161778D01*
X577818Y162338D01*
G03X577382I-218J-218D01*
G37*
G36*
G01X568900Y232700D02*
Y232000D01*
X570071Y231929D01*
X570000Y233100D01*
X569300D01*
G03X568900Y232700I0J-400D01*
G37*
G36*
G01X575100Y232600D02*
Y231900D01*
X576271Y231829D01*
X576200Y233000D01*
X575500D01*
G03X575100Y232600I0J-400D01*
G37*
G36*
G01X573017Y229973D02*
X572522Y229478D01*
X573300Y228600D01*
X574078Y229478D01*
X573583Y229973D01*
G03X573017I-283J-283D01*
G37*
G36*
G01X566417Y229673D02*
X565922Y229178D01*
X566700Y228300D01*
X567478Y229178D01*
X566983Y229673D01*
G03X566417I-283J-283D01*
G37*
G36*
G01X579217Y229873D02*
X578722Y229378D01*
X579500Y228500D01*
X580278Y229378D01*
X579783Y229873D01*
G03X579217I-283J-283D01*
G37*
G36*
G01X564338Y297618D02*
X563778Y298178D01*
X562923Y297400D01*
X563778Y296622D01*
X564338Y297182D01*
G03Y297618I-218J218D01*
G37*
G36*
G01X572608Y371100D02*
X573400D01*
X573454Y372254D01*
X572300Y372200D01*
Y371408D01*
G03X572608Y371100I308J0D01*
G37*
G36*
G01X567508Y371300D02*
X568300D01*
X568354Y372454D01*
X567200Y372400D01*
Y371608D01*
G03X567508Y371300I308J0D01*
G37*
G36*
G01X592582Y102838D02*
X592022Y102278D01*
X592800Y101423D01*
X593578Y102278D01*
X593018Y102838D01*
G03X592582I-218J-218D01*
G37*
G36*
G01X593018Y127962D02*
X593578Y128522D01*
X592800Y129377D01*
X592022Y128522D01*
X592582Y127962D01*
G03X593018I218J218D01*
G37*
G36*
G01X585617Y229873D02*
X585122Y229378D01*
X585900Y228500D01*
X586678Y229378D01*
X586183Y229873D01*
G03X585617I-283J-283D01*
G37*
G36*
G01X589017D02*
X588522Y229378D01*
X589300Y228500D01*
X590078Y229378D01*
X589583Y229873D01*
G03X589017I-283J-283D01*
G37*
G36*
G01X581800Y232400D02*
Y231700D01*
X582971Y231629D01*
X582900Y232800D01*
X582200D01*
G03X581800Y232400I0J-400D01*
G37*
G36*
G01X593500Y282292D02*
Y281500D01*
X594654Y281446D01*
X594600Y282600D01*
X593808D01*
G03X593500Y282292I0J-308D01*
G37*
G36*
G01X583562Y297182D02*
X584122Y296622D01*
X584977Y297400D01*
X584122Y298178D01*
X583562Y297618D01*
G03Y297182I218J-218D01*
G37*
G36*
G01X584312Y313133D02*
X584872Y312573D01*
X585727Y313350D01*
X584872Y314128D01*
X584312Y313568D01*
G03Y313133I218J-218D01*
G37*
G36*
G01X784500Y72400D02*
G02I-14500J0D01*
G37*
G36*
G01X765162Y98382D02*
X765722Y97822D01*
X766577Y98600D01*
X765722Y99378D01*
X765162Y98818D01*
G03Y98382I218J-218D01*
G37*
G36*
G01X765908Y136400D02*
X766700D01*
X766754Y137554D01*
X765600Y137500D01*
Y136708D01*
G03X765908Y136400I308J0D01*
G37*
G36*
G01X784500Y433100D02*
G02I-14500J0D01*
G37*
G54D10*
X86101Y63119D03*
Y81481D03*
X80802Y72300D03*
X86101Y423919D03*
Y442281D03*
X80802Y433100D03*
X96699Y63119D03*
Y81481D03*
X101998Y72300D03*
X96699Y423919D03*
Y442281D03*
X101998Y433100D03*
X764701Y63119D03*
Y81481D03*
X759402Y72300D03*
X764801Y423919D03*
Y442281D03*
X759502Y433100D03*
X775299Y63119D03*
Y81481D03*
X780598Y72300D03*
X775399Y423919D03*
Y442281D03*
X780698Y433100D03*
G54D20*
X553788Y422026D03*
Y438365D03*
X587812Y422026D03*
Y438365D03*
G54D11*
X91400Y72300D03*
Y433100D03*
X770000Y72300D03*
X770100Y433100D03*
G54D12*
X113837Y122284D03*
Y220709D03*
Y278134D03*
Y376559D03*
X270787Y412000D03*
X369213D03*
G54D21*
X642158Y157027D03*
X739009D03*
G54D13*
X108246Y155138D03*
X119428Y149686D03*
X108246Y166044D03*
X119428Y171497D03*
Y160591D03*
X108246Y187855D03*
Y176950D03*
X119428Y182402D03*
Y193308D03*
Y305536D03*
X108246Y321894D03*
Y310988D03*
X119428Y327347D03*
Y316441D03*
X108246Y343705D03*
Y332799D03*
X119428Y338252D03*
Y349158D03*
X309094Y406409D03*
X298189D03*
X303642Y417591D03*
X320000Y406409D03*
X325453Y417591D03*
X314547D03*
X341811Y406409D03*
X330906D03*
X336358Y417591D03*
X478742Y427018D03*
X488742D03*
X520908D03*
X530908D03*
X718900Y68226D03*
Y83974D03*
G54D22*
X714500Y413402D03*
Y433402D03*
X734500Y413402D03*
X724500Y423402D03*
X734500Y433402D03*
G54D23*
G01X338500Y214200D02*
X357400D01*
G01X338500Y219700D02*
X361800D01*
G01X338550Y216950D02*
X359450D01*
G01X338500Y222561D02*
X364500D01*
G01X520300Y183500D02*
Y175900D01*
X517600Y173200D01*
X450665D01*
X449536Y174330D01*
X412570D01*
X409200Y177700D01*
Y185400D01*
X408100Y186500D01*
X369800D01*
X367600Y188700D01*
Y201300D01*
X365100Y203800D01*
X355800D01*
X354600Y202600D01*
Y200695D01*
X355400Y199895D01*
X356000D01*
X356800Y199095D01*
Y197495D01*
X356000Y196695D01*
X355400D01*
X354600Y195895D01*
Y194295D01*
X355400Y193495D01*
X356000D01*
X356800Y192695D01*
Y191095D01*
X356000Y190295D01*
X355400D01*
X354600Y189495D01*
Y187895D01*
X355400Y187095D01*
X356000D01*
X356800Y186295D01*
Y184695D01*
X356000Y183895D01*
X355400D01*
X354600Y183095D01*
Y177900D01*
X351700Y175000D01*
Y162600D01*
X350700Y161600D01*
X347200D01*
X346400Y162400D01*
Y164881D01*
X347200Y165681D01*
X349100D01*
X349900Y166481D01*
Y168081D01*
X349100Y168881D01*
X347200D01*
X346400Y169681D01*
Y171281D01*
X347200Y172081D01*
X349100D01*
X349900Y172881D01*
Y174481D01*
X349100Y175281D01*
X347200D01*
X346400Y176081D01*
Y177681D01*
X347200Y178481D01*
X349100D01*
X349900Y179281D01*
Y180881D01*
X349100Y181681D01*
X347200D01*
X346400Y182481D01*
Y184481D01*
G01X357415Y162726D02*
X358140Y162000D01*
X362600D01*
X363300Y162700D01*
X404000D01*
X407364Y159336D01*
X408038D01*
X408174Y159200D01*
X511829D01*
X512229Y158800D01*
X551900D01*
X553600Y160500D01*
Y175900D01*
X551900Y177600D01*
X543000D01*
X540500Y180100D01*
G01X352100Y178300D02*
Y186070D01*
X351300Y186870D01*
X348900D01*
X348100Y187670D01*
Y189270D01*
X348900Y190070D01*
X351300D01*
X352100Y190870D01*
Y192470D01*
X351300Y193270D01*
X348900D01*
X348100Y194070D01*
Y195670D01*
X348900Y196470D01*
X351300D01*
X352100Y197270D01*
Y198870D01*
X351300Y199670D01*
X348900D01*
X348100Y200470D01*
Y202070D01*
X348900Y202870D01*
X351300D01*
X352100Y203670D01*
Y205100D01*
X353700Y206700D01*
X413400D01*
X414400Y205700D01*
Y182200D01*
X416900Y179700D01*
X508600D01*
X509200Y180300D01*
X511200D01*
G01X576200Y231900D02*
X566500Y241600D01*
X384246D01*
X375146Y232500D01*
X374200D01*
X373400Y231700D01*
Y227900D01*
X372600Y227100D01*
X371000D01*
X370200Y227900D01*
Y231700D01*
X369400Y232500D01*
X367800D01*
X367000Y231700D01*
Y227900D01*
X366200Y227100D01*
X364600D01*
X363800Y227900D01*
Y231700D01*
X363000Y232500D01*
X361400D01*
X360600Y231700D01*
Y227900D01*
X359800Y227100D01*
X358200D01*
X357400Y227900D01*
Y231700D01*
X356600Y232500D01*
X355000D01*
X354200Y231700D01*
Y227900D01*
X353400Y227100D01*
X351800D01*
X351000Y227900D01*
Y231700D01*
X350200Y232500D01*
X348600D01*
X347800Y231700D01*
Y227900D01*
X347000Y227100D01*
X345400D01*
X344600Y227900D01*
Y231700D01*
X343800Y232500D01*
X341800D01*
G01X348700Y224800D02*
X366500D01*
X367300Y224000D01*
Y221500D01*
X364400Y218600D01*
Y213900D01*
X364892Y213408D01*
X366192D01*
X366992Y214208D01*
Y215700D01*
X367792Y216500D01*
X369392D01*
X370192Y215700D01*
Y214208D01*
X370992Y213408D01*
X372592D01*
X373392Y214208D01*
Y215700D01*
X374192Y216500D01*
X375792D01*
X376592Y215700D01*
Y214208D01*
X377392Y213408D01*
X378992D01*
X379792Y214208D01*
Y215700D01*
X380592Y216500D01*
X382192D01*
X382992Y215700D01*
Y214208D01*
X383792Y213408D01*
X385608D01*
X401900Y229700D01*
X413971D01*
X414271Y229400D01*
X415929D01*
X416229Y229700D01*
X451200D01*
X455000Y233500D01*
X562100D01*
X563600Y232000D01*
G01X579500Y228600D02*
Y231900D01*
X568200Y243200D01*
X383300D01*
X377800Y237700D01*
X370200D01*
X369400Y236900D01*
Y235100D01*
X368600Y234300D01*
X367000D01*
X366200Y235100D01*
Y236900D01*
X365400Y237700D01*
X363800D01*
X363000Y236900D01*
Y235100D01*
X362200Y234300D01*
X360600D01*
X359800Y235100D01*
Y236900D01*
X359000Y237700D01*
X357400D01*
X356600Y236900D01*
Y235100D01*
X355800Y234300D01*
X354200D01*
X353400Y235100D01*
Y236900D01*
X352600Y237700D01*
X351000D01*
X350200Y236900D01*
Y235100D01*
X349400Y234300D01*
X347800D01*
X347000Y235100D01*
Y236900D01*
X346200Y237700D01*
X344900D01*
X344000Y236800D01*
Y234800D01*
G01X361700Y166900D02*
X379500D01*
X380000Y166400D01*
X405500D01*
X409500Y162400D01*
X548500D01*
X549700Y163600D01*
Y172600D01*
X548300Y174000D01*
X539700D01*
X534400Y179300D01*
Y180000D01*
G01X364500Y168900D02*
X366500D01*
X367300Y169700D01*
Y170400D01*
X368100Y171200D01*
X369700D01*
X370500Y170400D01*
Y169700D01*
X371300Y168900D01*
X372900D01*
X373700Y169700D01*
Y170400D01*
X374500Y171200D01*
X376100D01*
X376900Y170400D01*
Y169700D01*
X377700Y168900D01*
X380100D01*
X380700Y168300D01*
X406200D01*
X410300Y164200D01*
X547300D01*
X547900Y164800D01*
Y171400D01*
X547000Y172300D01*
X538900D01*
X531700Y179500D01*
Y183600D01*
G01X359450Y164500D02*
X405000D01*
X408364Y161136D01*
X408501D01*
X408837Y160800D01*
X512491D01*
X512691Y160600D01*
X550400D01*
X551400Y161600D01*
Y173900D01*
X549600Y175700D01*
X542071D01*
X537800Y179971D01*
Y183400D01*
G01X517300Y180200D02*
Y178400D01*
X513900Y175000D01*
X451411D01*
X449911Y176500D01*
X413600D01*
X411100Y179000D01*
Y191600D01*
X405800Y196900D01*
X402600D01*
X401800Y196100D01*
Y189400D01*
X401000Y188600D01*
X399400D01*
X398600Y189400D01*
Y196100D01*
X397800Y196900D01*
X396200D01*
X395400Y196100D01*
Y189400D01*
X394600Y188600D01*
X393000D01*
X392200Y189400D01*
Y196100D01*
X391400Y196900D01*
X389800D01*
X389000Y196100D01*
Y189400D01*
X388200Y188600D01*
X386600D01*
X385800Y189400D01*
Y196100D01*
X385000Y196900D01*
X383400D01*
X382600Y196100D01*
Y189400D01*
X381800Y188600D01*
X380200D01*
X379400Y189400D01*
Y196100D01*
X378600Y196900D01*
X377000D01*
X376200Y196100D01*
Y189400D01*
X375400Y188600D01*
X373800D01*
X373000Y189400D01*
Y196100D01*
X372200Y196900D01*
X370900D01*
X370100Y197700D01*
Y203705D01*
X369205Y204600D01*
X368000D01*
G01X372005Y204500D02*
X374005D01*
X374805Y203700D01*
Y199800D01*
X375605Y199000D01*
X377205D01*
X378005Y199800D01*
Y203700D01*
X378805Y204500D01*
X380405D01*
X381205Y203700D01*
Y199800D01*
X382005Y199000D01*
X383605D01*
X384405Y199800D01*
Y203700D01*
X385205Y204500D01*
X386805D01*
X387605Y203700D01*
Y199800D01*
X388405Y199000D01*
X390005D01*
X390805Y199800D01*
Y203700D01*
X391605Y204500D01*
X393205D01*
X394005Y203700D01*
Y199800D01*
X394805Y199000D01*
X396405D01*
X397205Y199800D01*
Y203700D01*
X398005Y204500D01*
X399605D01*
X400405Y203700D01*
Y199800D01*
X401205Y199000D01*
X402805D01*
X403605Y199800D01*
Y203700D01*
X404405Y204500D01*
X411900D01*
X412700Y203700D01*
Y202200D01*
X411900Y201400D01*
X407566D01*
X406766Y200600D01*
Y199034D01*
X408470Y197330D01*
X411900D01*
X412700Y196530D01*
Y181500D01*
X416100Y178100D01*
X450574D01*
X450744Y177930D01*
X451027D01*
X452057Y176900D01*
X511800D01*
X514200Y179300D01*
Y183500D01*
G01X370005Y240700D02*
X372205D01*
X373605Y239300D01*
X376854D01*
X379154Y241600D01*
X379191D01*
X382391Y244800D01*
X569800D01*
X582900Y231700D01*
G01X381816Y170300D02*
Y183900D01*
X382616Y184700D01*
X383916D01*
X384716Y183900D01*
Y171800D01*
X385516Y171000D01*
X387116D01*
X387916Y171800D01*
Y183900D01*
X388716Y184700D01*
X390316D01*
X391116Y183900D01*
Y171800D01*
X391916Y171000D01*
X393516D01*
X394316Y171800D01*
Y183900D01*
X395116Y184700D01*
X396716D01*
X397516Y183900D01*
Y171800D01*
X398316Y171000D01*
X399916D01*
X400716Y171800D01*
Y183900D01*
X401516Y184700D01*
X405800D01*
X407600Y182900D01*
Y169700D01*
X410700Y166600D01*
X437564D01*
X439501Y168537D01*
X439537D01*
X439930Y168930D01*
X447299D01*
X448829Y167400D01*
X544000D01*
X544800Y168200D01*
Y169700D01*
X544000Y170500D01*
X538400D01*
X528800Y180100D01*
G01X383784Y234200D02*
Y236200D01*
X385784Y238200D01*
X435900D01*
X441200Y232900D01*
X449400D01*
X454400Y237900D01*
X564100D01*
X570000Y232000D01*
G01X379847Y233700D02*
X381261Y235114D01*
Y236162D01*
X384900Y239800D01*
X445612D01*
X445642Y239830D01*
X447299D01*
X447329Y239800D01*
X565300D01*
X573300Y231800D01*
Y228700D01*
G01X415100Y231400D02*
X394588D01*
X393788Y230600D01*
Y228100D01*
X392988Y227300D01*
X391388D01*
X390588Y228100D01*
Y230600D01*
X389788Y231400D01*
X388400D01*
X387600Y232200D01*
Y235400D01*
X388700Y236500D01*
X390700D01*
X391500Y235700D01*
Y234200D01*
X392300Y233400D01*
X393900D01*
X394700Y234200D01*
Y235700D01*
X395500Y236500D01*
X397100D01*
X397900Y235700D01*
Y234200D01*
X398700Y233400D01*
X400300D01*
X401100Y234200D01*
Y235700D01*
X401900Y236500D01*
X403500D01*
X404300Y235700D01*
Y234200D01*
X405100Y233400D01*
X406700D01*
X407500Y234200D01*
Y235700D01*
X408300Y236500D01*
X409900D01*
X410700Y235700D01*
Y234200D01*
X411500Y233400D01*
X413100D01*
X413900Y234200D01*
Y235700D01*
X414700Y236500D01*
X416300D01*
X417100Y235700D01*
Y234200D01*
X417900Y233400D01*
X419500D01*
X420300Y234200D01*
Y235700D01*
X421100Y236500D01*
X422700D01*
X423500Y235700D01*
Y234200D01*
X424300Y233400D01*
X425900D01*
X426700Y234200D01*
Y235700D01*
X427500Y236500D01*
X429100D01*
X429900Y235700D01*
Y234200D01*
X430700Y233400D01*
X432300D01*
X433100Y234200D01*
Y235700D01*
X433900Y236500D01*
X435200D01*
X440400Y231300D01*
X450100D01*
X454500Y235700D01*
X563300D01*
X566700Y232300D01*
Y228400D01*
G01X375910Y241300D02*
X377324Y242714D01*
X377924D01*
X378410Y243200D01*
X378529D01*
X381729Y246400D01*
X571537D01*
X585900Y232037D01*
Y228600D01*
G01X589300D02*
Y231000D01*
X572186Y248114D01*
X380614D01*
X377700Y245200D01*
G01X410200Y170100D02*
X411614Y168686D01*
X437286D01*
X439330Y170730D01*
X448044D01*
X449574Y169200D01*
X532000D01*
X532800Y170000D01*
Y173200D01*
X526000Y180000D01*
Y183500D01*
G01X523100Y180200D02*
Y176037D01*
X523900Y175237D01*
X526900D01*
X527700Y174437D01*
Y172837D01*
X526900Y172037D01*
X523900D01*
X523063Y171200D01*
X450120D01*
X448790Y172530D01*
X438830D01*
X436600Y170300D01*
X432900D01*
X432100Y171100D01*
Y171930D01*
X431300Y172730D01*
X429700D01*
X428900Y171930D01*
Y171100D01*
X428100Y170300D01*
X426500D01*
X425700Y171100D01*
Y171930D01*
X424900Y172730D01*
X423300D01*
X422500Y171930D01*
Y171100D01*
X421700Y170300D01*
X420100D01*
X419300Y171100D01*
Y171930D01*
X418500Y172730D01*
X416900D01*
X416100Y171930D01*
Y171100D01*
X415300Y170300D01*
X414000D01*
X412200Y172100D01*
G01X559600Y228500D02*
Y230500D01*
X558800Y231300D01*
X557500D01*
X556700Y230500D01*
Y225300D01*
X555900Y224500D01*
X554300D01*
X553500Y225300D01*
Y230500D01*
X552700Y231300D01*
X551100D01*
X550300Y230500D01*
Y225300D01*
X549500Y224500D01*
X547900D01*
X547100Y225300D01*
Y230500D01*
X546300Y231300D01*
X544700D01*
X543900Y230500D01*
Y225300D01*
X543100Y224500D01*
X541500D01*
X540700Y225300D01*
Y230500D01*
X539900Y231300D01*
X538300D01*
X537500Y230500D01*
Y225300D01*
X536700Y224500D01*
X535100D01*
X534300Y225300D01*
Y230500D01*
X533500Y231300D01*
X531900D01*
X531100Y230500D01*
Y225300D01*
X530300Y224500D01*
X528700D01*
X527900Y225300D01*
Y230500D01*
X527100Y231300D01*
X525500D01*
X524700Y230500D01*
Y225300D01*
X523900Y224500D01*
X522300D01*
X521500Y225300D01*
Y230500D01*
X520700Y231300D01*
X519100D01*
X518300Y230500D01*
Y225300D01*
X517500Y224500D01*
X515900D01*
X515100Y225300D01*
Y230500D01*
X514300Y231300D01*
X512700D01*
X511900Y230500D01*
Y225300D01*
X511100Y224500D01*
X509500D01*
X508700Y225300D01*
Y230500D01*
X507900Y231300D01*
X506300D01*
X505500Y230500D01*
Y225300D01*
X504700Y224500D01*
X503100D01*
X502300Y225300D01*
Y230500D01*
X501500Y231300D01*
X499900D01*
X499100Y230500D01*
Y225300D01*
X498300Y224500D01*
X496700D01*
X495900Y225300D01*
Y230500D01*
X495100Y231300D01*
X456900D01*
X452700Y227100D01*
X423500D01*
X421400Y225000D01*
G54D14*
X132358Y186800D03*
Y344000D03*
X138657Y186643D03*
Y343900D03*
X188700Y306600D03*
X192200D03*
X195700D03*
X188700Y324100D03*
X192200D03*
X195700D03*
X188700Y320600D03*
X192200D03*
X195700D03*
X188700Y317100D03*
X192200D03*
X195700D03*
X188700Y313600D03*
X192200D03*
X195700D03*
X188700Y310100D03*
X192200D03*
X195700D03*
X216900Y271700D03*
X220400D03*
X216800Y268900D03*
X207365Y295865D03*
X208349Y336951D03*
X214884Y334116D03*
X220888Y422200D03*
X228700Y135900D03*
X225400Y141900D03*
X237300Y170200D03*
X234400Y172400D03*
X232200Y201600D03*
X233500Y198800D03*
X237300Y190300D03*
X234400Y193684D03*
X233600Y215100D03*
X237900Y213100D03*
X238900Y249400D03*
X239300Y271400D03*
X228200Y291300D03*
X234618Y302482D03*
X238699Y330401D03*
X252500Y118400D03*
X244200Y116800D03*
X256604Y201304D03*
X244359Y188745D03*
X248258Y205242D03*
X243600Y203400D03*
X243200Y211100D03*
X246400Y209100D03*
X240000Y210100D03*
X256582Y228863D03*
X256400Y232800D03*
X253200Y239100D03*
X240900Y226100D03*
X247900Y228400D03*
X241100Y254300D03*
X247300Y245100D03*
X251700Y242000D03*
X256865Y266265D03*
X249900Y262350D03*
X252600Y260400D03*
X255600Y258400D03*
X242800Y271400D03*
X246300D03*
X244200Y278824D03*
X240000Y305700D03*
X263700Y133700D03*
X266600Y131700D03*
X273300Y139500D03*
X270900Y155200D03*
X271300Y171600D03*
X268000Y217052D03*
X271100Y219021D03*
X265462Y230832D03*
X265431Y234769D03*
X271700Y236737D03*
X267374Y224926D03*
X267693Y250593D03*
X265350Y265850D03*
X269700Y291300D03*
X268700Y323900D03*
X272500D03*
X259101Y337501D03*
X289448Y113119D03*
X288500Y129100D03*
X278100Y123200D03*
X277800Y144200D03*
X275400Y141900D03*
X288400Y167400D03*
X290500Y174500D03*
X276200Y220989D03*
X285194Y238706D03*
X280000Y244611D03*
X290435Y295535D03*
X289451Y336251D03*
X279394Y337894D03*
X305700Y133700D03*
X296700Y131700D03*
X301100Y128200D03*
X297637Y142440D03*
X292700Y141500D03*
X294900Y144100D03*
X304493Y144493D03*
X307463Y171541D03*
X294700Y155200D03*
X297800Y187800D03*
X298270Y184030D03*
X300900Y191830D03*
X306100Y216800D03*
X296300Y357300D03*
X316786Y133414D03*
X322934Y130534D03*
X309090Y144310D03*
X322870Y153970D03*
X320200Y168947D03*
X323800D03*
X308401Y182800D03*
X320230Y178337D03*
X323970D03*
X320500Y190453D03*
X322363Y197470D03*
X323800Y190453D03*
X308300Y214400D03*
X311100Y218000D03*
X311000Y221600D03*
X320230Y209630D03*
X318400Y220700D03*
X316100Y222700D03*
X323970Y209700D03*
X316100Y238900D03*
X318400Y240800D03*
X316100Y268300D03*
X320919D03*
X323000Y306400D03*
Y323900D03*
Y320400D03*
Y316900D03*
Y313400D03*
Y309900D03*
X337877Y113119D03*
Y118119D03*
X325386Y133414D03*
X337100Y123100D03*
X328500Y141200D03*
X340477Y153400D03*
X342250Y151050D03*
X328200Y170700D03*
X337700Y187600D03*
X338000Y175700D03*
X336000Y172700D03*
X336725Y178575D03*
X328382Y188418D03*
X328500Y180544D03*
X340500Y190386D03*
X328497Y208103D03*
X325800Y220700D03*
X336166Y206134D03*
X328400Y220700D03*
X338500Y214200D03*
Y219700D03*
Y222561D03*
X338550Y216950D03*
X328400Y223851D03*
X328899Y239599D03*
X328000Y227000D03*
X341800Y232500D03*
X340477Y248123D03*
X325900Y240800D03*
X337500Y241000D03*
X339500Y243000D03*
X326500Y306400D03*
X330000D03*
X326500Y323900D03*
X330000D03*
X326500Y320400D03*
X330000D03*
X326500Y316900D03*
X330000D03*
X326500Y313400D03*
X330000D03*
X326500Y309900D03*
X330000D03*
X355800Y119100D03*
X359300D03*
X355800Y115600D03*
X359300D03*
X355800Y126100D03*
X359300D03*
X355800Y122600D03*
X359300D03*
X346400Y128100D03*
X354400Y140700D03*
X358200Y140300D03*
X346137Y144430D03*
X345656Y152844D03*
X352288Y143888D03*
X354257Y150100D03*
X348300Y151200D03*
X357415Y162726D03*
X354257Y165043D03*
X352100Y178300D03*
X346400Y184481D03*
X352288Y208600D03*
X357400Y214200D03*
X346383Y211583D03*
X348700Y224800D03*
X344000Y234800D03*
X344500Y240400D03*
X342446Y245900D03*
X353763Y269670D03*
X346137D03*
X348351Y261600D03*
X346137Y265930D03*
X358194Y274794D03*
X356225Y277725D03*
X375100Y107700D03*
X371900Y109800D03*
X366500Y134600D03*
X375600D03*
X376519Y123119D03*
X360200Y142400D03*
X371837Y144430D03*
X370000Y152500D03*
X362131Y151831D03*
X364099Y149500D03*
X371837Y148170D03*
X373942Y152458D03*
X361700Y166900D03*
X364500Y168900D03*
X359450Y164500D03*
X368000Y204600D03*
X372005Y204500D03*
X361800Y219700D03*
X364500Y222561D03*
X359450Y216950D03*
X375910Y241300D03*
X370005Y240700D03*
X375910Y261200D03*
X374000Y272353D03*
X361670Y269670D03*
X373810Y263227D03*
X369000Y265300D03*
X363200Y267100D03*
X371600Y277000D03*
X363900Y277200D03*
X367092D03*
X371600Y291400D03*
X363900Y291700D03*
X367092Y291608D03*
X373665Y343965D03*
X373935Y350265D03*
X376600Y113100D03*
X376900Y118000D03*
X376581Y128119D03*
X381600Y134700D03*
X393600Y141700D03*
X391658Y152500D03*
X391830Y148170D03*
X379500Y137900D03*
X381816Y170300D03*
X391000Y215200D03*
X383784Y234200D03*
X379847Y233700D03*
X377700Y245200D03*
X379800Y271484D03*
X383800Y267300D03*
X393600Y272353D03*
X393495Y263142D03*
X385753Y270853D03*
X379800Y276500D03*
X383800Y282300D03*
X389092Y392726D03*
X389900Y386500D03*
X410100Y141747D03*
X409375Y152925D03*
X407406Y142200D03*
X410200Y170100D03*
X400900Y221300D03*
X396200Y219100D03*
X402900Y227300D03*
X395595Y261300D03*
X401501Y271801D03*
X409187Y381484D03*
X406700Y379700D03*
X393700D03*
X402700Y407700D03*
X403708Y401387D03*
X407000Y407515D03*
Y401500D03*
X409447Y419700D03*
X413200Y130700D03*
X416700Y129292D03*
X411200Y127700D03*
X416800Y134800D03*
X420000Y136900D03*
X423400Y139200D03*
X415463Y144430D03*
X413300Y152972D03*
X425800Y141300D03*
X423000Y187100D03*
X420000Y186900D03*
X412200Y172100D03*
X419900Y183500D03*
X426100Y188600D03*
X421400Y225000D03*
X415100Y231400D03*
X419200Y272353D03*
X421186Y261386D03*
X419086Y263200D03*
X427600Y270602D03*
X411343Y274500D03*
X418000Y276300D03*
X415589Y296644D03*
X412900Y296400D03*
X416000Y384100D03*
X419500D03*
X423000D03*
X416000Y380600D03*
X419500D03*
X423000D03*
X416000Y377100D03*
X419500D03*
X423000D03*
X412700Y388428D03*
X426746Y387650D03*
X419900Y407900D03*
X419787Y401300D03*
X426387Y401887D03*
X413213Y411087D03*
X426387Y413150D03*
X430300Y151700D03*
X433500Y150600D03*
X428500Y146100D03*
Y143400D03*
X444070Y166537D03*
X440330D03*
X433500Y155200D03*
X430251D03*
X437700Y190386D03*
X442730Y190530D03*
X440047Y214000D03*
X439600Y237500D03*
X442730Y237770D03*
X429100Y260800D03*
X436000Y268300D03*
X432500Y268400D03*
X443900Y269800D03*
X428350Y290350D03*
X431000Y289300D03*
X440600Y291500D03*
X433816Y365216D03*
X429700Y371800D03*
X440700Y372000D03*
X430500Y391750D03*
X443850Y391350D03*
X440700Y399200D03*
X433816Y399984D03*
X433900Y412500D03*
X432300Y414200D03*
X435400D03*
X430400Y419700D03*
X446470Y190530D03*
X449153Y214000D03*
X456500Y212600D03*
X459808Y215498D03*
X456200Y217700D03*
X458500Y219900D03*
X446470Y237830D03*
X448300Y235100D03*
X451200Y372000D03*
X454700Y391350D03*
X451200Y405800D03*
X445900D03*
X472970Y141184D03*
X477400Y141200D03*
X469230Y141184D03*
X478650Y154396D03*
X465600Y150400D03*
X463100Y147400D03*
X472400Y154396D03*
X475540Y198340D03*
X469241Y198241D03*
X472400Y198700D03*
X478700Y198600D03*
X472970Y212000D03*
X466547Y214600D03*
X478830Y212070D03*
X466800Y224300D03*
X477200Y225400D03*
X478700Y253600D03*
X471000Y253300D03*
X475540Y269340D03*
X469241Y269441D03*
X470461Y371939D03*
Y384261D03*
X470200Y443700D03*
X492100Y98600D03*
X480900Y141200D03*
X484989Y154396D03*
X494230Y141184D03*
X490900Y199663D03*
X494438Y198362D03*
X481800Y198300D03*
X484930Y201826D03*
X485253Y214600D03*
X494430Y212100D03*
X482000Y225503D03*
X487800Y226700D03*
X491500Y269900D03*
X494438Y269762D03*
X488700Y273000D03*
X481100Y258800D03*
X484989Y259811D03*
X484930Y272916D03*
X488139Y257400D03*
X490000Y279000D03*
X490628Y362472D03*
X497970Y141170D03*
X503887Y144213D03*
X510130Y141184D03*
X511000Y157200D03*
X511200Y180300D03*
X509200Y183700D03*
X510263Y199663D03*
X501663D03*
X498170Y212070D03*
X503887Y214587D03*
X510170Y212437D03*
X496500Y209900D03*
X507670Y273030D03*
X503930D03*
X510911Y359489D03*
X513870Y141184D03*
X519553Y143347D03*
X526000Y183500D03*
X520300D03*
X517300Y180200D03*
X514200Y183500D03*
X528800Y180100D03*
X523100Y180200D03*
X516485Y215216D03*
X525934Y215334D03*
X513350Y214950D03*
X522784Y215216D03*
X519635D03*
X529083Y215383D03*
X516500Y259700D03*
X515750Y359450D03*
X537970Y141184D03*
X534230D03*
X540500Y180100D03*
X534400Y180000D03*
X531700Y183600D03*
X537800Y183400D03*
X532233Y215433D03*
X541682Y215518D03*
X535383Y215517D03*
X538532Y215600D03*
X544832Y215632D03*
X532650Y359450D03*
X539800Y443400D03*
X547430Y141100D03*
X551030Y141070D03*
X561750Y147650D03*
X553341Y193741D03*
X557467Y216100D03*
X551130Y212370D03*
X547981Y215619D03*
X559600Y228500D03*
X563600Y232000D03*
X553715Y264847D03*
X563000Y297400D03*
X562450Y313350D03*
X550000Y315400D03*
X559650Y333050D03*
X563300Y372400D03*
X550200Y411000D03*
X558202Y415902D03*
X568050Y138850D03*
X577600Y161000D03*
X570000Y232000D03*
X576200Y231900D03*
X573300Y228700D03*
X566700Y228400D03*
X579500Y228600D03*
X578300Y372400D03*
X573400Y372200D03*
X568300Y372400D03*
Y404000D03*
X592800Y101500D03*
Y129300D03*
X585900Y228600D03*
X589300D03*
X582900Y231700D03*
X594600Y281500D03*
X584900Y297400D03*
X585650Y313350D03*
X584000Y377700D03*
Y390400D03*
X591000Y411000D03*
X583398Y415902D03*
X599150Y287850D03*
X599118Y303818D03*
X599150Y319650D03*
X626779Y359980D03*
X618100Y392900D03*
Y387600D03*
X618054Y378654D03*
X647276Y324521D03*
X641987Y382654D03*
Y390578D03*
X656500Y78572D03*
X662600Y78600D03*
X666174Y335674D03*
X658300Y356700D03*
X660035Y376265D03*
X665944Y376244D03*
X662200Y415000D03*
X667363Y81882D03*
X672473Y335727D03*
X667749Y356649D03*
X670898Y356702D03*
X680347Y356747D03*
X683497Y356697D03*
X668700Y415300D03*
X698781Y83481D03*
X685072Y335728D03*
X697670Y335670D03*
X692946Y356746D03*
X714993Y356707D03*
X732316Y324521D03*
X748261Y367261D03*
X766500Y98600D03*
X766660Y130440D03*
X766700Y137500D03*
X766652Y169148D03*
G54D24*
G01X228700Y135900D02*
X225500Y139100D01*
X205000D01*
X187400Y156700D01*
X151700D01*
X144500Y163900D01*
Y242700D01*
X185100Y283300D01*
Y298600D01*
X180500Y303200D01*
Y311372D01*
X160000Y331872D01*
G01X225400Y141900D02*
X206600D01*
X189300Y159200D01*
X162800D01*
X154700Y167300D01*
Y247700D01*
X188200Y281200D01*
Y299800D01*
X183600Y304400D01*
Y318272D01*
X170000Y331872D01*
G01X160000Y174480D02*
Y245900D01*
X199000Y284900D01*
X286800D01*
X302200Y300300D01*
X404000D01*
X436000Y268300D01*
G01X170000Y174480D02*
Y251800D01*
X200300Y282100D01*
X286800D01*
X303600Y298900D01*
X402000D01*
X432500Y268400D01*
G01X168449Y373144D02*
X174071D01*
G01X168449Y394798D02*
X174071D01*
G01Y373144D02*
Y378766D01*
G01Y373144D02*
X179692D01*
G01X174071Y389176D02*
Y394798D01*
G01D02*
X179692D01*
G01X363200Y267100D02*
X365500D01*
X366500Y268100D01*
X377900D01*
X381100Y264900D01*
X386100D01*
X388500Y267300D01*
X426500D01*
X428400Y265400D01*
X547100D01*
X550000Y268300D01*
X572200D01*
X595600Y244900D01*
Y170700D01*
X555900Y131000D01*
X502100D01*
X483900Y112800D01*
X445900D01*
X423900Y90800D01*
X259500D01*
X237100Y113200D01*
Y165800D01*
X234400Y168500D01*
Y172400D01*
G01X369000Y265300D02*
X377300D01*
X379700Y262900D01*
X386400D01*
X389100Y265600D01*
X424900D01*
X426600Y263900D01*
X550100D01*
X551061Y262939D01*
X574761D01*
X593500Y244200D01*
Y170900D01*
X555400Y132800D01*
X501600D01*
X484200Y115400D01*
X444000D01*
X421600Y93000D01*
X261100D01*
X239200Y114900D01*
Y168300D01*
X237300Y170200D01*
G01X459808Y215498D02*
X463610Y219300D01*
X566600D01*
X574300Y211600D01*
Y184100D01*
X557200Y167000D01*
Y141600D01*
X552700Y137100D01*
X499900D01*
X486800Y124000D01*
X438400D01*
X413500Y99100D01*
X271200D01*
X256200Y114100D01*
Y162000D01*
X230100Y188100D01*
Y213508D01*
X231692Y215100D01*
X233600D01*
G01X456200Y217700D02*
X459100D01*
X462400Y221000D01*
X567022D01*
X575700Y212322D01*
Y183600D01*
X558800Y166700D01*
Y141200D01*
X553300Y135700D01*
X500600D01*
X486800Y121900D01*
X440900D01*
X416400Y97400D01*
X269600D01*
X254600Y112400D01*
Y160500D01*
X228400Y186700D01*
Y214800D01*
X230608Y217008D01*
X235900D01*
X237900Y215008D01*
Y213100D01*
G01X429100Y260800D02*
X431400D01*
X432900Y262300D01*
X547900D01*
X549700Y260500D01*
X573700D01*
X591800Y242400D01*
Y171400D01*
X554700Y134300D01*
X501200D01*
X485500Y118600D01*
X441900D01*
X418500Y95200D01*
X261700D01*
X241400Y115500D01*
Y170500D01*
X226700Y185200D01*
Y216300D01*
X229400Y219000D01*
X236300D01*
X240000Y215300D01*
Y210100D01*
G01X243200Y211100D02*
Y209192D01*
X235608Y201600D01*
X232200D01*
G01X246400Y209100D02*
X245708D01*
X235408Y198800D01*
X233500D01*
G01X248258Y205242D02*
X237300Y194284D01*
Y190300D01*
G01X243600Y203400D02*
X241954D01*
X234400Y195846D01*
Y193684D01*
G01X252500Y118400D02*
X245800D01*
X244200Y116800D01*
G01X362131Y151831D02*
X358200Y147900D01*
X270100D01*
X264600Y153400D01*
Y203000D01*
X244200Y223400D01*
Y259000D01*
X247550Y262350D01*
X249900D01*
G01X288400Y167400D02*
X272400D01*
X269100Y170700D01*
Y203900D01*
X249808Y223192D01*
Y241194D01*
X249792Y241210D01*
Y242791D01*
X249808Y242806D01*
Y257608D01*
X252600Y260400D01*
G01X241100Y254300D02*
Y229400D01*
X242808Y227692D01*
Y222892D01*
X263100Y202600D01*
Y152700D01*
X269399Y146401D01*
X361000D01*
X364099Y149500D01*
G01X456500Y212600D02*
X459609D01*
X465109Y218100D01*
X565700D01*
X572700Y211100D01*
Y184600D01*
X555600Y167500D01*
Y142200D01*
X552100Y138700D01*
X499600D01*
X486200Y125300D01*
X435800D01*
X411100Y100600D01*
X272700D01*
X258800Y114500D01*
Y202400D01*
X238900Y222300D01*
Y249400D01*
G01X354257Y150100D02*
X351957D01*
X350957Y149100D01*
X271200D01*
X265900Y154400D01*
Y203700D01*
X245951Y223649D01*
Y243751D01*
X247300Y245100D01*
G01X251700Y242000D02*
X251200Y241500D01*
Y225200D01*
X272400Y204000D01*
Y199400D01*
X319900Y151900D01*
X336677D01*
X338177Y153400D01*
X340477D01*
G01X240900Y226100D02*
Y222900D01*
X260900Y202900D01*
Y115400D01*
X274300Y102000D01*
X392808D01*
X416700Y125892D01*
Y129292D01*
G01X247900Y228400D02*
Y223500D01*
X267800Y203600D01*
Y154500D01*
X271800Y150500D01*
X339792D01*
X340342Y151050D01*
X342250D01*
G01X255600Y258400D02*
Y234699D01*
X254100Y233199D01*
Y227800D01*
X292192Y189708D01*
X301492D01*
X302782Y188418D01*
X328382D01*
G01X253200Y239100D02*
Y237192D01*
X252450Y236442D01*
Y227150D01*
X285500Y194100D01*
Y189400D01*
X316700Y158200D01*
X391100D01*
X396375Y152925D01*
X409375D01*
G01X305700Y133700D02*
X263700D01*
G01X296700Y131700D02*
X266600D01*
G01X294700Y155200D02*
X270900D01*
G01X271300Y171600D02*
X272851Y173151D01*
X289151D01*
X290500Y174500D01*
G01X271100Y219021D02*
X274100Y222021D01*
Y233700D01*
X318125Y277725D01*
X356225D01*
G01X271700Y236737D02*
X274600Y239637D01*
Y243300D01*
X327100Y295800D01*
X399300D01*
X401501Y293599D01*
Y271801D01*
G01X427600Y270602D02*
X426251Y271951D01*
X426049D01*
X400700Y297300D01*
X325000D01*
X269400Y241700D01*
Y226953D01*
X267374Y224926D01*
G01X360200Y142400D02*
Y139500D01*
X356700Y136000D01*
X276800D01*
X273300Y139500D01*
G01X278100Y123200D02*
X284000Y129100D01*
X288500D01*
G01X277800Y144200D02*
X282800Y139200D01*
X350600D01*
X352100Y140700D01*
X354400D01*
G01X275400Y141900D02*
X279700Y137600D01*
X355500D01*
X358200Y140300D01*
G01X276200Y220989D02*
Y233700D01*
X317294Y274794D01*
X358194D01*
G01X280000Y244611D02*
X329089Y293700D01*
X383300D01*
X385753Y291247D01*
Y270853D01*
G01X285194Y238706D02*
X301494D01*
X313200Y227000D01*
X328000D01*
G01X407406Y142200D02*
Y139006D01*
X400000Y131600D01*
X328000D01*
X324500Y128100D01*
X318500D01*
X314263Y132337D01*
X312700D01*
X312084Y131721D01*
X310216D01*
X309600Y131105D01*
Y129873D01*
X310216Y129257D01*
X312084D01*
X312700Y128641D01*
Y127409D01*
X312084Y126793D01*
X310216D01*
X309600Y126177D01*
Y124945D01*
X310216Y124329D01*
X312084D01*
X312700Y123713D01*
Y122481D01*
X312084Y121865D01*
X310216D01*
X309600Y121249D01*
Y120017D01*
X310216Y119401D01*
X312084D01*
X312700Y118785D01*
Y117553D01*
X312084Y116937D01*
X310216D01*
X309600Y116321D01*
Y115089D01*
X310216Y114473D01*
X312084D01*
X312700Y113857D01*
Y111900D01*
X311300Y110500D01*
X305000D01*
X303800Y111700D01*
Y125500D01*
X301100Y128200D01*
G01X292700Y141500D02*
X293900D01*
X294868Y140532D01*
X317632D01*
X321500Y144400D01*
X336600D01*
X339500Y141500D01*
X349900D01*
X352288Y143888D01*
G01X340500Y190386D02*
Y187700D01*
X337900Y185100D01*
X300500D01*
X297800Y187800D01*
G01X337700Y187600D02*
X325500Y199800D01*
X312200D01*
X306100Y205900D01*
Y216800D01*
G01X338000Y175700D02*
X339349Y177049D01*
Y184349D01*
X342500Y187500D01*
Y198100D01*
X339100Y201500D01*
X313300D01*
X308300Y206500D01*
Y214400D01*
G01X311100Y218000D02*
X313300Y215800D01*
Y206800D01*
X316100Y204000D01*
X341100D01*
X345300Y199800D01*
Y186300D01*
X341800Y182800D01*
Y173400D01*
X339100Y170700D01*
X328200D01*
G01X311000Y221600D02*
X309000Y219600D01*
Y217100D01*
X310800Y215300D01*
Y206600D01*
X314600Y202800D01*
X340000D01*
X343900Y198900D01*
Y186900D01*
X340600Y183600D01*
Y174800D01*
X338500Y172700D01*
X336000D01*
G01X337100Y123100D02*
X344400Y130400D01*
X401700D01*
X412600Y141300D01*
X425800D01*
G01X481100Y258800D02*
X479500Y257200D01*
X468400D01*
X467600Y256400D01*
X382432D01*
X381816Y257016D01*
Y258584D01*
X381200Y259200D01*
X379968D01*
X379352Y258584D01*
Y257016D01*
X378736Y256400D01*
X377504D01*
X376889Y257016D01*
Y258584D01*
X376272Y259200D01*
X375040D01*
X374424Y258584D01*
Y257016D01*
X373809Y256400D01*
X372576D01*
X371960Y257016D01*
Y258584D01*
X371344Y259200D01*
X370112D01*
X369496Y258584D01*
Y257016D01*
X368880Y256400D01*
X367648D01*
X367032Y257016D01*
Y258584D01*
X366416Y259200D01*
X365184D01*
X364568Y258584D01*
Y257016D01*
X363953Y256400D01*
X362720D01*
X362104Y257016D01*
Y258584D01*
X361488Y259200D01*
X360256D01*
X359641Y258584D01*
Y257016D01*
X359024Y256400D01*
X357793D01*
X357176Y257016D01*
Y258584D01*
X356560Y259200D01*
X355328D01*
X354712Y258584D01*
Y257016D01*
X354097Y256400D01*
X352900D01*
X344623Y248123D01*
X340477D01*
G01X478700Y253600D02*
Y251892D01*
X478200Y251392D01*
X476604D01*
X475988Y252008D01*
Y253384D01*
X475372Y254000D01*
X474140D01*
X473524Y253384D01*
Y252008D01*
X472908Y251392D01*
X374907D01*
X367390Y243875D01*
X367375D01*
X365800Y242300D01*
X361655D01*
X361039Y242916D01*
Y244584D01*
X360422Y245200D01*
X359190D01*
X358574Y244584D01*
Y242916D01*
X357958Y242300D01*
X356726D01*
X356110Y242916D01*
Y244584D01*
X355494Y245200D01*
X354262D01*
X353646Y244584D01*
Y242916D01*
X353030Y242300D01*
X351799D01*
X351182Y242916D01*
Y244584D01*
X350566Y245200D01*
X349334D01*
X348718Y244584D01*
Y242916D01*
X348102Y242300D01*
X345299D01*
X345291Y242308D01*
X343710D01*
X343702Y242300D01*
X341800D01*
X340592Y241092D01*
X339500D01*
X339408Y241000D01*
X337500D01*
G01X471000Y253300D02*
X470616Y252916D01*
X368484D01*
X367868Y252300D01*
Y247916D01*
X367252Y247300D01*
X366020D01*
X365404Y247916D01*
Y252300D01*
X364788Y252916D01*
X363556D01*
X362940Y252300D01*
Y247916D01*
X362324Y247300D01*
X361092D01*
X360476Y247916D01*
Y252300D01*
X359860Y252916D01*
X358628D01*
X358012Y252300D01*
Y247916D01*
X357396Y247300D01*
X356164D01*
X355548Y247916D01*
Y252300D01*
X354932Y252916D01*
X353816D01*
X344800Y243900D01*
X341096D01*
X340196Y243000D01*
X339500D01*
G01X415589Y296644D02*
X408434Y303800D01*
X352100D01*
X340700Y315200D01*
Y345973D01*
G01X412900Y296400D02*
X407600Y301700D01*
X348700D01*
X336400Y314000D01*
Y322800D01*
X330700Y328500D01*
Y345973D01*
G01X346400Y128100D02*
Y108500D01*
X351600Y103300D01*
X390800D01*
X413200Y125700D01*
Y130700D01*
G01X511000Y157200D02*
X406900D01*
X403900Y160200D01*
X356800D01*
X354257Y162743D01*
Y165043D01*
G01X352288Y208600D02*
X415000D01*
X415900Y207700D01*
Y206333D01*
X415908Y206325D01*
Y184592D01*
X419188Y181312D01*
X436594D01*
X436720Y181438D01*
X452480D01*
X452606Y181312D01*
X506812D01*
X509200Y183700D01*
G01X346383Y211583D02*
X348291D01*
X349273Y210600D01*
X468017D01*
X471517Y214100D01*
X480900D01*
X482300Y212700D01*
X484454D01*
X484462Y212692D01*
X486043D01*
X486051Y212700D01*
X490300D01*
X491900Y214300D01*
X501475D01*
X503096Y212679D01*
X505579D01*
X507850Y214950D01*
X513350D01*
G01X344500Y240400D02*
X366200D01*
X375676Y249876D01*
X472277D01*
X472301Y249900D01*
X506696D01*
X515147Y258351D01*
X515151D01*
X516500Y259700D01*
G01X342446Y245900D02*
X344600D01*
X353032Y254332D01*
X468832D01*
X470100Y255600D01*
X480680D01*
X481296Y254984D01*
Y253616D01*
X481912Y253000D01*
X483144D01*
X483760Y253616D01*
Y254984D01*
X484376Y255600D01*
X486339D01*
X488139Y257400D01*
G01X411200Y127700D02*
X389000Y105500D01*
X371600D01*
X368900Y108200D01*
Y114100D01*
X372800Y118000D01*
X376900D01*
G01X375100Y107700D02*
X386500D01*
X413600Y134800D01*
X416800D01*
G01X371900Y109800D02*
X381700D01*
X398700Y126800D01*
X403100D01*
X413200Y136900D01*
X420000D01*
G01X371600Y277000D02*
Y291400D01*
G01X363900Y277200D02*
Y291700D01*
G01X367092Y277200D02*
Y291608D01*
G01X423400Y139200D02*
X412900D01*
X402200Y128500D01*
X392000D01*
X376600Y113100D01*
G01X381600Y134700D02*
X384100Y137200D01*
X399400D01*
X408900Y146700D01*
X425200D01*
X428500Y143400D01*
G01X379500Y137900D02*
X380849Y139249D01*
X399749D01*
X408400Y147900D01*
X426700D01*
X428500Y146100D01*
G01X466800Y224300D02*
X460005D01*
X453973Y218268D01*
X453971D01*
X453387Y217684D01*
X453384D01*
X453300Y217600D01*
X398300D01*
X395600Y214900D01*
X393208D01*
X392908Y215200D01*
X391000D01*
G01X379800Y276500D02*
Y271484D01*
G01X383800Y282300D02*
Y267300D01*
G01X443900Y269800D02*
Y271708D01*
X385037Y330571D01*
Y408037D01*
X392100Y415100D01*
X414400D01*
X415850Y416550D01*
Y424725D01*
G01X428350Y290350D02*
Y294550D01*
X387000Y335900D01*
Y406900D01*
X393500Y413400D01*
X422400D01*
X423724Y414724D01*
Y424725D01*
G01X400900Y221300D02*
X402808D01*
X403008Y221100D01*
X452800D01*
X459376Y227676D01*
X479827D01*
X482000Y225503D01*
G01X477200Y225400D02*
X475292D01*
X474432Y226260D01*
X459963D01*
X453387Y219684D01*
X453384D01*
X452800Y219100D01*
X396200D01*
G01X487800Y226700D02*
X485408Y229092D01*
X458292D01*
X452292Y223092D01*
X437271D01*
X436655Y223708D01*
Y224570D01*
X436039Y225186D01*
X434807D01*
X434191Y224570D01*
Y223708D01*
X433575Y223092D01*
X432343D01*
X431727Y223708D01*
Y224570D01*
X431111Y225186D01*
X429879D01*
X429263Y224570D01*
Y223708D01*
X428647Y223092D01*
X427415D01*
X426799Y223708D01*
Y224570D01*
X426183Y225186D01*
X424951D01*
X424335Y224570D01*
Y223708D01*
X423719Y223092D01*
X420610D01*
X420602Y223100D01*
X419400D01*
X415200Y227300D01*
X413432D01*
X412816Y226684D01*
Y223516D01*
X412200Y222900D01*
X410968D01*
X410352Y223516D01*
Y226684D01*
X409736Y227300D01*
X408504D01*
X407888Y226684D01*
Y223516D01*
X407272Y222900D01*
X406040D01*
X405424Y223516D01*
Y226684D01*
X404808Y227300D01*
X402900D01*
G01X407000Y401500D02*
Y394128D01*
X412700Y388428D01*
G01X481800Y198300D02*
Y203118D01*
X482416Y203734D01*
X485720D01*
X486854Y202600D01*
X493184D01*
X493800Y203216D01*
Y205300D01*
X493300Y205800D01*
X492705D01*
X492089Y206416D01*
Y208384D01*
X491473Y209000D01*
X490241D01*
X489625Y208384D01*
Y206416D01*
X489009Y205800D01*
X487893D01*
X487277Y206416D01*
Y209476D01*
X486661Y210092D01*
X485429D01*
X484813Y209476D01*
Y206416D01*
X484197Y205800D01*
X482965D01*
X482349Y206416D01*
Y209476D01*
X481733Y210092D01*
X480501D01*
X479885Y209476D01*
Y206416D01*
X479269Y205800D01*
X478037D01*
X477421Y206416D01*
Y209476D01*
X476805Y210092D01*
X475573D01*
X474957Y209476D01*
Y206416D01*
X474341Y205800D01*
X473109D01*
X472493Y206416D01*
Y209476D01*
X471877Y210092D01*
X470645D01*
X470029Y209476D01*
Y206416D01*
X469413Y205800D01*
X468297D01*
X467681Y206416D01*
Y208484D01*
X467065Y209100D01*
X465833D01*
X465217Y208484D01*
Y206416D01*
X464601Y205800D01*
X463369D01*
X462753Y206416D01*
Y208484D01*
X462137Y209100D01*
X460905D01*
X460289Y208484D01*
Y206416D01*
X459673Y205800D01*
X458441D01*
X457825Y206416D01*
Y208484D01*
X457209Y209100D01*
X455977D01*
X455361Y208484D01*
Y206416D01*
X454745Y205800D01*
X453513D01*
X452897Y206416D01*
Y208484D01*
X452281Y209100D01*
X451049D01*
X450433Y208484D01*
Y206416D01*
X449817Y205800D01*
X448585D01*
X447969Y206416D01*
Y208484D01*
X447353Y209100D01*
X446121D01*
X445505Y208484D01*
Y206416D01*
X444889Y205800D01*
X443657D01*
X443041Y206416D01*
Y208484D01*
X442425Y209100D01*
X441193D01*
X440577Y208484D01*
Y206416D01*
X439961Y205800D01*
X438729D01*
X438113Y206416D01*
Y208484D01*
X437497Y209100D01*
X436265D01*
X435649Y208484D01*
Y206416D01*
X435033Y205800D01*
X433801D01*
X433185Y206416D01*
Y208484D01*
X432569Y209100D01*
X431337D01*
X430721Y208484D01*
Y206416D01*
X430105Y205800D01*
X428873D01*
X428257Y206416D01*
Y208484D01*
X427641Y209100D01*
X426409D01*
X425793Y208484D01*
Y206416D01*
X425177Y205800D01*
X423900D01*
X423000Y204900D01*
Y202560D01*
X422384Y201944D01*
X417940D01*
X417324Y201328D01*
Y200096D01*
X417940Y199480D01*
X422384D01*
X423000Y198864D01*
Y197632D01*
X422384Y197016D01*
X417940D01*
X417324Y196400D01*
Y195168D01*
X417940Y194552D01*
X422384D01*
X423000Y193936D01*
Y192704D01*
X422384Y192088D01*
X417940D01*
X417324Y191472D01*
Y190240D01*
X417940Y189624D01*
X422384D01*
X423000Y189008D01*
Y187100D01*
G01X472400Y198700D02*
Y191300D01*
X474200Y189500D01*
X475581D01*
X476197Y190116D01*
Y191284D01*
X476813Y191900D01*
X478045D01*
X478661Y191284D01*
Y190116D01*
X479277Y189500D01*
X480509D01*
X481125Y190116D01*
Y191284D01*
X481741Y191900D01*
X482973D01*
X483589Y191284D01*
Y190116D01*
X484205Y189500D01*
X485437D01*
X486053Y190116D01*
Y191284D01*
X486669Y191900D01*
X487901D01*
X488517Y191284D01*
Y190116D01*
X489133Y189500D01*
X493100D01*
X494100Y188500D01*
Y186400D01*
X492900Y185200D01*
X491382D01*
X490766Y185816D01*
Y187284D01*
X490150Y187900D01*
X488918D01*
X488302Y187284D01*
Y185816D01*
X487686Y185200D01*
X486454D01*
X485838Y185816D01*
Y187284D01*
X485222Y187900D01*
X483990D01*
X483374Y187284D01*
Y185816D01*
X482758Y185200D01*
X481526D01*
X480910Y185816D01*
Y187284D01*
X480294Y187900D01*
X479062D01*
X478446Y187284D01*
Y185816D01*
X477830Y185200D01*
X476598D01*
X475982Y185816D01*
Y187284D01*
X475366Y187900D01*
X474134D01*
X473518Y187284D01*
Y185816D01*
X472902Y185200D01*
X471670D01*
X471054Y185816D01*
Y187284D01*
X470438Y187900D01*
X469206D01*
X468590Y187284D01*
Y185816D01*
X467974Y185200D01*
X466858D01*
X466242Y185816D01*
Y192684D01*
X465626Y193300D01*
X464394D01*
X463778Y192684D01*
Y185816D01*
X463162Y185200D01*
X461930D01*
X461314Y185816D01*
Y192684D01*
X460698Y193300D01*
X459466D01*
X458850Y192684D01*
Y185816D01*
X458234Y185200D01*
X457002D01*
X456386Y185816D01*
Y192684D01*
X455770Y193300D01*
X454538D01*
X453922Y192684D01*
Y185816D01*
X453306Y185200D01*
X452074D01*
X451458Y185816D01*
Y192684D01*
X450842Y193300D01*
X449610D01*
X448994Y192684D01*
Y185816D01*
X448378Y185200D01*
X446464D01*
X445848Y185816D01*
Y187684D01*
X445232Y188300D01*
X444000D01*
X443384Y187684D01*
Y185816D01*
X442768Y185200D01*
X441536D01*
X440920Y185816D01*
Y187684D01*
X440304Y188300D01*
X439072D01*
X438456Y187684D01*
Y185816D01*
X437840Y185200D01*
X436608D01*
X435992Y185816D01*
Y187684D01*
X435376Y188300D01*
X434144D01*
X433528Y187684D01*
Y185816D01*
X432912Y185200D01*
X431680D01*
X431064Y185816D01*
Y187684D01*
X430448Y188300D01*
X429216D01*
X428600Y187684D01*
Y185816D01*
X427984Y185200D01*
X423798D01*
X423790Y185192D01*
X422210D01*
X422202Y185200D01*
X421700D01*
X420000Y186900D01*
G01X496500Y209900D02*
Y203412D01*
X497116Y202796D01*
X499139D01*
X499755Y202180D01*
Y200948D01*
X499139Y200332D01*
X497116D01*
X496500Y199716D01*
Y194716D01*
X497116Y194100D01*
X498232D01*
X498848Y194716D01*
Y196284D01*
X499464Y196900D01*
X500696D01*
X501312Y196284D01*
Y194716D01*
X501928Y194100D01*
X503160D01*
X503776Y194716D01*
Y196284D01*
X504392Y196900D01*
X505624D01*
X506240Y196284D01*
Y194716D01*
X506856Y194100D01*
X509800D01*
X510900Y193000D01*
Y188400D01*
X506000Y183500D01*
X504140D01*
X503524Y184116D01*
Y191484D01*
X502908Y192100D01*
X501676D01*
X501060Y191484D01*
Y184116D01*
X500444Y183500D01*
X499212D01*
X498596Y184116D01*
Y191484D01*
X497980Y192100D01*
X496748D01*
X496132Y191484D01*
Y184116D01*
X495516Y183500D01*
X419900D01*
G01X478700Y198600D02*
Y203484D01*
X478084Y204100D01*
X476957D01*
X476341Y203484D01*
Y201019D01*
X475725Y200403D01*
X474493D01*
X473877Y201019D01*
Y203484D01*
X473261Y204100D01*
X472145D01*
X471529Y203484D01*
Y201224D01*
X470913Y200608D01*
X469681D01*
X469065Y201224D01*
Y203484D01*
X468449Y204100D01*
X467333D01*
X466717Y203484D01*
Y195416D01*
X466101Y194800D01*
X464869D01*
X464253Y195416D01*
Y203484D01*
X463637Y204100D01*
X462405D01*
X461789Y203484D01*
Y195416D01*
X461173Y194800D01*
X459941D01*
X459325Y195416D01*
Y203484D01*
X458709Y204100D01*
X457477D01*
X456861Y203484D01*
Y195416D01*
X456245Y194800D01*
X455013D01*
X454397Y195416D01*
Y203484D01*
X453781Y204100D01*
X452549D01*
X451933Y203484D01*
Y195416D01*
X451317Y194800D01*
X450085D01*
X449469Y195416D01*
Y203484D01*
X448853Y204100D01*
X447621D01*
X447005Y203484D01*
Y195416D01*
X446389Y194800D01*
X445157D01*
X444541Y195416D01*
Y203484D01*
X443925Y204100D01*
X442693D01*
X442077Y203484D01*
Y195416D01*
X441461Y194800D01*
X440229D01*
X439613Y195416D01*
Y203484D01*
X438997Y204100D01*
X436901D01*
X436285Y203484D01*
Y192416D01*
X435669Y191800D01*
X434437D01*
X433821Y192416D01*
Y203484D01*
X433205Y204100D01*
X427916D01*
X427300Y203484D01*
Y201900D01*
X426100Y200700D01*
Y199132D01*
X426716Y198516D01*
X429884D01*
X430500Y197900D01*
Y196668D01*
X429884Y196052D01*
X426716D01*
X426100Y195436D01*
Y194204D01*
X426716Y193588D01*
X429884D01*
X430500Y192972D01*
Y191740D01*
X429884Y191124D01*
X426716D01*
X426100Y190508D01*
Y188600D01*
G01X411343Y274500D02*
X413143Y276300D01*
X418000D01*
G01X478650Y154396D02*
X481004D01*
X484216Y151184D01*
X486284D01*
X486900Y150568D01*
Y149336D01*
X486284Y148720D01*
X484216D01*
X483600Y148104D01*
Y146872D01*
X484216Y146256D01*
X486284D01*
X486900Y145640D01*
Y144408D01*
X486284Y143792D01*
X484216D01*
X483600Y143176D01*
Y141944D01*
X484216Y141328D01*
X486284D01*
X486900Y140712D01*
Y139480D01*
X486284Y138864D01*
X484216D01*
X483600Y138248D01*
Y137016D01*
X484216Y136400D01*
X486284D01*
X486900Y135784D01*
Y134552D01*
X486284Y133936D01*
X484216D01*
X483600Y133320D01*
Y130000D01*
X482600Y129000D01*
X478254D01*
X477638Y129616D01*
Y131884D01*
X477022Y132500D01*
X475790D01*
X475174Y131884D01*
Y129616D01*
X474558Y129000D01*
X473326D01*
X472710Y129616D01*
Y131884D01*
X472094Y132500D01*
X470862D01*
X470246Y131884D01*
Y129616D01*
X469630Y129000D01*
X468398D01*
X467782Y129616D01*
Y131884D01*
X467166Y132500D01*
X465934D01*
X465318Y131884D01*
Y129616D01*
X464702Y129000D01*
X463470D01*
X462854Y129616D01*
Y131884D01*
X462238Y132500D01*
X461006D01*
X460390Y131884D01*
Y129616D01*
X459774Y129000D01*
X458542D01*
X457926Y129616D01*
Y131884D01*
X457310Y132500D01*
X456078D01*
X455462Y131884D01*
Y129616D01*
X454846Y129000D01*
X453614D01*
X452998Y129616D01*
Y131884D01*
X452382Y132500D01*
X451150D01*
X450534Y131884D01*
Y129616D01*
X449918Y129000D01*
X448686D01*
X448070Y129616D01*
Y131884D01*
X447454Y132500D01*
X446222D01*
X445606Y131884D01*
Y129616D01*
X444990Y129000D01*
X443242D01*
X442626Y129616D01*
Y131884D01*
X442010Y132500D01*
X440778D01*
X440162Y131884D01*
Y129616D01*
X439546Y129000D01*
X437967D01*
X437275Y129691D01*
X437200Y130912D01*
X436584Y131528D01*
X433891D01*
X433275Y132144D01*
Y133376D01*
X433891Y133992D01*
X436584D01*
X437200Y134608D01*
Y135840D01*
X436584Y136456D01*
X433891D01*
X433275Y137072D01*
Y138304D01*
X433891Y138920D01*
X436584D01*
X437200Y139536D01*
Y140768D01*
X436584Y141384D01*
X433891D01*
X433275Y142000D01*
Y143475D01*
X434700Y144900D01*
Y145932D01*
X434332Y146300D01*
X431000D01*
X430300Y147000D01*
Y151700D01*
G01X433500Y150600D02*
Y148692D01*
X434192Y148000D01*
X438000D01*
X439600Y146400D01*
Y135200D01*
X440600Y134200D01*
X442712D01*
X443328Y134816D01*
Y148084D01*
X443944Y148700D01*
X445176D01*
X445792Y148084D01*
Y134816D01*
X446408Y134200D01*
X447640D01*
X448256Y134816D01*
Y148084D01*
X448872Y148700D01*
X450104D01*
X450720Y148084D01*
Y134816D01*
X451336Y134200D01*
X452568D01*
X453184Y134816D01*
Y148084D01*
X453800Y148700D01*
X455032D01*
X455648Y148084D01*
Y134816D01*
X456264Y134200D01*
X457496D01*
X458112Y134816D01*
Y148084D01*
X458728Y148700D01*
X459960D01*
X460576Y148084D01*
Y134816D01*
X461192Y134200D01*
X465300D01*
X467100Y136000D01*
Y137367D01*
X466484Y137983D01*
X465003D01*
X464387Y138599D01*
Y139831D01*
X465003Y140447D01*
X466484D01*
X467100Y141063D01*
Y142295D01*
X466484Y142911D01*
X465003D01*
X464387Y143527D01*
Y144759D01*
X465003Y145375D01*
X466484D01*
X467100Y145991D01*
Y147188D01*
X472400Y152488D01*
Y154396D01*
G01X430251Y155200D02*
X432243Y153208D01*
X440841D01*
X440849Y153200D01*
X461800D01*
X463100Y151900D01*
Y147400D01*
G01X433500Y155200D02*
X463900D01*
X465600Y153500D01*
Y150400D01*
G01X431000Y289300D02*
X435400Y293700D01*
X489600D01*
X568300Y372400D01*
G01X440600Y291500D02*
X492700D01*
X573400Y372200D01*
G01X577600Y161000D02*
Y213300D01*
X568700Y222200D01*
X460800D01*
X458500Y219900D01*
G01X492100Y98600D02*
X766500D01*
G01X491500Y269900D02*
Y277500D01*
X490000Y279000D01*
G01X516485Y215216D02*
X511669Y210400D01*
X509509D01*
X508809Y211100D01*
X502001D01*
X501300Y210399D01*
Y209167D01*
X501916Y208551D01*
X512284D01*
X512900Y207935D01*
Y206703D01*
X512284Y206087D01*
X501916D01*
X501300Y205471D01*
Y204239D01*
X501916Y203623D01*
X512284D01*
X512900Y203007D01*
Y187900D01*
X511200Y186200D01*
Y180300D01*
G01X526000Y183500D02*
Y185100D01*
X533200Y192300D01*
X548600D01*
X552000Y195700D01*
X560900D01*
X561800Y196600D01*
Y203200D01*
X561000Y204000D01*
X543666D01*
X532233Y215433D01*
G01X520300Y183500D02*
Y185600D01*
X530300Y195600D01*
X531468D01*
X532084Y196216D01*
Y197784D01*
X532700Y198400D01*
X533932D01*
X534548Y197784D01*
Y196216D01*
X535164Y195600D01*
X536396D01*
X537012Y196216D01*
Y197784D01*
X537628Y198400D01*
X538860D01*
X539476Y197784D01*
Y196216D01*
X540092Y195600D01*
X541324D01*
X541940Y196216D01*
Y197784D01*
X542556Y198400D01*
X543788D01*
X544404Y197784D01*
Y196216D01*
X545020Y195600D01*
X547100D01*
X548900Y197400D01*
Y200084D01*
X548284Y200700D01*
X540568D01*
X525934Y215334D01*
G01X522784Y215216D02*
X524269Y213730D01*
Y212859D01*
X522041Y210631D01*
Y209759D01*
X522912Y208888D01*
X523783D01*
X526012Y211117D01*
X526883D01*
X527754Y210246D01*
Y209374D01*
X525525Y207146D01*
Y206275D01*
X526397Y205403D01*
X527268D01*
X529496Y207632D01*
X530368D01*
X532883Y205116D01*
Y203765D01*
X533499Y203149D01*
X534884D01*
X535500Y202533D01*
Y201301D01*
X534884Y200685D01*
X532266D01*
X531650Y200069D01*
Y199950D01*
X530449Y198749D01*
X529578D01*
X527149Y201178D01*
X526278D01*
X525407Y200307D01*
Y199436D01*
X527836Y197007D01*
Y196136D01*
X526964Y195264D01*
X526093D01*
X523664Y197693D01*
X522793D01*
X521922Y196822D01*
Y195951D01*
X524351Y193522D01*
Y192651D01*
X517300Y185600D01*
Y180200D01*
G01X519635Y215216D02*
Y211628D01*
X519019Y211012D01*
X515516D01*
X514900Y210396D01*
Y209164D01*
X515516Y208548D01*
X520101D01*
X520717Y207932D01*
Y206700D01*
X520101Y206084D01*
X515516D01*
X514900Y205468D01*
Y204236D01*
X515516Y203620D01*
X523010D01*
X523626Y203004D01*
Y201772D01*
X523010Y201156D01*
X515516D01*
X514900Y200540D01*
Y199308D01*
X515516Y198692D01*
X519560D01*
X520176Y198076D01*
Y196844D01*
X519560Y196228D01*
X515516D01*
X514900Y195612D01*
Y194380D01*
X515516Y193764D01*
X519019D01*
X519635Y193148D01*
Y191534D01*
X518530Y190430D01*
X517659D01*
X516930Y191159D01*
X516059D01*
X515187Y190287D01*
Y189416D01*
X515916Y188687D01*
Y187816D01*
X514200Y186100D01*
Y183500D01*
G01X528800Y180100D02*
Y185000D01*
X534600Y190800D01*
X558800D01*
X563400Y195400D01*
Y204200D01*
X562100Y205500D01*
X545400D01*
X535383Y215517D01*
G01X523100Y180200D02*
Y185200D01*
X531800Y193900D01*
X547800D01*
X551800Y197900D01*
X558500D01*
X559310Y198710D01*
Y201884D01*
X558694Y202500D01*
X541967D01*
X529083Y215383D01*
G01X540500Y180100D02*
Y182008D01*
X541792Y183300D01*
X568100D01*
X570116Y185316D01*
Y209384D01*
X567000Y212500D01*
X553698D01*
X551920Y214278D01*
X550340D01*
X550331Y214270D01*
X549330D01*
X547981Y215619D01*
G01X534400Y180000D02*
Y183100D01*
X538200Y186900D01*
X565100D01*
X566600Y188400D01*
Y207700D01*
X565700Y208600D01*
X548600D01*
X541682Y215518D01*
G01X531700Y183600D02*
X537400Y189300D01*
X562984D01*
X565000Y191316D01*
Y206000D01*
X563900Y207100D01*
X547032D01*
X538532Y215600D01*
G01X537800Y183400D02*
X537900D01*
X539700Y185200D01*
X567600D01*
X568700Y186300D01*
Y208798D01*
X567298Y210200D01*
X550263D01*
X544832Y215632D01*
G01X563000Y297400D02*
X584900D01*
G01X562450Y313350D02*
X585650D01*
G01X550000Y315400D02*
X587400D01*
X591100Y311700D01*
Y285000D01*
X594600Y281500D01*
G01X568050Y138850D02*
X572350Y134550D01*
X763750D01*
X766700Y137500D01*
G01X592800Y129300D02*
Y101500D01*
G54D15*
X150000Y144480D03*
X140000D03*
Y174480D03*
X150000D03*
Y301872D03*
X140000D03*
Y331872D03*
X150000D03*
X160000Y144480D03*
Y174480D03*
X170000D03*
X160000Y301872D03*
Y331872D03*
X170000D03*
X223900Y370343D03*
X220888Y433849D03*
X210888D03*
X220888Y443849D03*
X233900Y370343D03*
X230888Y433849D03*
Y443849D03*
X253900Y370343D03*
X273900D03*
X263900D03*
X283900D03*
X340700Y345973D03*
X330700D03*
Y375973D03*
X340700D03*
X360700Y345973D03*
X350700D03*
Y375973D03*
X360700D03*
X487344Y372727D03*
X497344D03*
X492344Y382727D03*
X507344Y372727D03*
X502344Y382727D03*
X512344D03*
X517344Y372727D03*
X522344Y382727D03*
G54D25*
G01X360700Y375973D02*
Y387520D01*
X341811Y406409D01*
G54D16*
X157535Y373144D03*
X141000D03*
X157535Y394798D03*
X141000D03*
X174071Y373144D03*
Y394798D03*
X474333Y395719D03*
X535317D03*
G54D26*
G01X220888Y443849D02*
Y433849D01*
G54D17*
X213900Y370343D03*
X210888Y443849D03*
G54D27*
G01X239300Y271400D02*
X223050D01*
X222750Y271700D01*
X220400D01*
G01X242800Y271400D02*
X239300D01*
G01X246300D02*
X242800D01*
G54D18*
X407976Y424725D03*
X415850D03*
X423724D03*
G54D28*
G01X113837Y220709D02*
X98812Y205684D01*
Y137309D01*
X113837Y122284D01*
G01Y278134D02*
X97700Y294271D01*
Y360422D01*
X113837Y376559D01*
G01Y278134D02*
Y220709D01*
G01Y376559D02*
Y403337D01*
X122314Y411814D01*
X174071D01*
G01D02*
X174061Y411824D01*
X174238Y412000D01*
X270787D01*
G01X174071Y394798D02*
Y411814D01*
G01X210888Y433849D02*
Y443849D01*
G01X369213Y412000D02*
X350013Y431200D01*
X289987D01*
X270787Y412000D01*
G54D19*
X431598Y424725D03*
M02*
