M48
INCH,TZ
T01C.01
T02C.0315
T03C.03937
T04C.043307
T05C.047244
T06C.055118
T07C.070866
T08C.086614
T09C.124016
T10C.125984
T11C.025591
T12C.049213
T13C.068898
T14C.129921
;LEADER: 12 
;HEADER: 
;CODE  : ASCII 
;FILE  : bsmu_h750_v1-1-4.drl for board D:/documents/Allegro_PRJ/BSMU/GERBER6/PCB/#Taaaaae11532.tmp ... layers TOP and BOTTOM
;T01 Holesize 1. = 10.000000 Tolerance = +0.000000/-0.000000 PLATED MILS Quantity = 539
;T02 Holesize 2. = 31.500000 Tolerance = +0.000000/-0.000000 PLATED MILS Quantity = 4
;T03 Holesize 3. = 39.370000 Tolerance = +0.000000/-0.000000 PLATED MILS Quantity = 67
;T04 Holesize 4. = 43.307000 Tolerance = +0.000000/-0.000000 PLATED MILS Quantity = 29
;T05 Holesize 5. = 47.244000 Tolerance = +0.000000/-0.000000 PLATED MILS Quantity = 4
;T06 Holesize 6. = 55.118000 Tolerance = +0.000000/-0.000000 PLATED MILS Quantity = 5
;T07 Holesize 7. = 70.866000 Tolerance = +0.000000/-0.000000 PLATED MILS Quantity = 8
;T08 Holesize 8. = 86.614000 Tolerance = +0.000000/-0.000000 PLATED MILS Quantity = 2
;T09 Holesize 9. = 124.016000 Tolerance = +0.000000/-0.000000 PLATED MILS Quantity = 4
;T10 Holesize 10. = 125.984000 Tolerance = +0.000000/-0.000000 PLATED MILS Quantity = 6
;T11 Holesize 11. = 25.591000 Tolerance = +0.000000/-0.000000 NON_PLATED MILS Quantity = 2
;T12 Holesize 12. = 49.213000 Tolerance = +0.000000/-0.000000 NON_PLATED MILS Quantity = 1
;T13 Holesize 13. = 68.898000 Tolerance = +0.000000/-0.000000 NON_PLATED MILS Quantity = 1
;T14 Holesize 14. = 129.921000 Tolerance = +0.000000/-0.000000 NON_PLATED MILS Quantity = 2
%
G90
T01
X138657Y186643
X132358Y186800
X138657Y343900
X132358Y344000
X188700Y306600
R02X3500
X188700Y310100
R02X3500
X188700Y313600
R02X3500
X188700Y317100
R02X3500
X188700Y320600
R02X3500
X188700Y324100
R02X3500
X220888Y422200
X208349Y336951
X214884Y334116
X238699Y330401
X234618Y302482
X207365Y295865
X228200Y291300
X220400Y271700
X216900Y271700
X239300Y271400
X216800Y268900
X238900Y249400
X233600Y215100
X237900Y213100
X232200Y201600
X233500Y198800
X234400Y193684
X237300Y190300
X234400Y172400
X237300Y170200
X225400Y141900
X228700Y135900
X244200Y116800
X252500Y118400
X278100Y123200
X266600Y131700
X263700Y133700
X273300Y139500
X275400Y141900
X277800Y144200
X270900Y155200
X271300Y171600
X244359Y188745
X256604Y201304
X243600Y203400
X248258Y205242
X246400Y209100
X240000Y210100
X243200Y211100
X268000Y217052
X271100Y219021
X276200Y220989
X267374Y224926
X240900Y226100
X247900Y228400
X256582Y228863
X265462Y230832
X256400Y232800
X265431Y234769
X271700Y236737
X253200Y239100
X251700Y242000
X247300Y245100
X267693Y250593
X241100Y254300
X255600Y258400
X252600Y260400
X249900Y262350
X265350Y265850
X256865Y266265
X242800Y271400
X246300Y271400
X244200Y278824
X269700Y291300
X240000Y305700
X268700Y323900
X272500Y323900
X259101Y337501
X279394Y337894
X296300Y357300
X289451Y336251
X290435Y295535
X316100Y268300
X280000Y244611
X318400Y240800
X316100Y238900
X285194Y238706
X316100Y222700
X311000Y221600
X318400Y220700
X311100Y218000
X306100Y216800
X308300Y214400
X300900Y191830
X297800Y187800
X298270Y184030
X308401Y182800
X290500Y174500
X307463Y171541
X288400Y167400
X294700Y155200
X304493Y144493
X309090Y144310
X294900Y144100
X297637Y142440
X292700Y141500
X305700Y133700
X316786Y133414
X296700Y131700
X288500Y129100
X301100Y128200
X289448Y113119
X337877Y113119
X355800Y115600
X359300Y115600
X337877Y118119
X355800Y119100
X359300Y119100
X355800Y122600
X359300Y122600
X337100Y123100
X355800Y126100
X359300Y126100
X346400Y128100
X322934Y130534
X325386Y133414
X358200Y140300
X354400Y140700
X328500Y141200
X352288Y143888
X346137Y144430
X354257Y150100
X342250Y151050
X348300Y151200
X345656Y152844
X340477Y153400
X322870Y153970
X357415Y162726
X359450Y164500
X354257Y165043
X320200Y168947
X323800Y168947
X328200Y170700
X336000Y172700
X338000Y175700
X320230Y178337
X323970Y178337
X352100Y178300
X336725Y178575
X328500Y180544
X346400Y184481
X337700Y187600
X328382Y188418
X340500Y190386
X320500Y190453
X323800Y190453
X322363Y197470
X336166Y206134
X328497Y208103
X352288Y208600
X320230Y209630
X323970Y209700
X346383Y211583
X338500Y214200
X357400Y214200
X338550Y216950
X359450Y216950
X338500Y219700
X325800Y220700
X328400Y220700
X338500Y222561
X328400Y223851
X348700Y224800
X328000Y227000
X341800Y232500
X344000Y234800
X328899Y239599
X344500Y240400
X325900Y240800
X337500Y241000
X339500Y243000
X342446Y245900
X340477Y248123
X348351Y261600
X346137Y265930
X320919Y268300
X346137Y269670
X353763Y269670
X358194Y274794
X356225Y277725
X323000Y306400
R02X3500
X323000Y309900
R02X3500
X323000Y313400
R02X3500
X323000Y316900
R02X3500
X323000Y320400
R02X3500
X323000Y323900
R02X3500
X389092Y392726
X389900Y386500
X393700Y379700
X373935Y350265
X373665Y343965
X363900Y291700
X367092Y291608
X371600Y291400
X383800Y282300
X367092Y277200
X363900Y277200
X371600Y277000
X379800Y276500
X393600Y272353
X374000Y272353
X379800Y271484
X385753Y270853
X361670Y269670
X383800Y267300
X363200Y267100
X369000Y265300
X373810Y263227
X393495Y263142
X395595Y261300
X375910Y261200
X377700Y245200
X375910Y241300
X370005Y240700
X383784Y234200
X379847Y233700
X364500Y222561
X361800Y219700
X396200Y219100
X391000Y215200
X368000Y204600
X372005Y204500
X381816Y170300
X364500Y168900
X361700Y166900
X391658Y152500
X373942Y152458
X370000Y152500
X362131Y151831
X364099Y149500
X391830Y148170
X371837Y148170
X371837Y144430
X360200Y142400
X393600Y141700
X379500Y137900
X381600Y134700
X375600Y134600
X366500Y134600
X376581Y128119
X376519Y123119
X376900Y118000
X376600Y113100
X371900Y109800
X375100Y107700
X411200Y127700
X416700Y129292
X413200Y130700
X416800Y134800
X420000Y136900
X423400Y139200
X425800Y141300
X410100Y141747
X407406Y142200
X428500Y143400
X415463Y144430
X428500Y146100
X433500Y150600
X430300Y151700
X409375Y152925
X413300Y152972
X430251Y155200
X433500Y155200
X410200Y170100
X412200Y172100
X419900Y183500
X420000Y186900
X423000Y187100
X426100Y188600
X437700Y190386
X400900Y221300
X421400Y225000
X402900Y227300
X415100Y231400
X439600Y237500
X429100Y260800
X421186Y261386
X419086Y263200
X436000Y268300
X432500Y268400
X427600Y270602
X401501Y271801
X419200Y272353
X411343Y274500
X418000Y276300
X431000Y289300
X428350Y290350
X412900Y296400
X415589Y296644
X433816Y365216
X429700Y371800
X416000Y377100
X419500Y377100
X423000Y377100
X406700Y379700
X416000Y380600
X419500Y380600
X423000Y380600
X409187Y381484
X416000Y384100
X419500Y384100
X423000Y384100
X426746Y387650
X412700Y388428
X430500Y391750
X433816Y399984
X419787Y401300
X403709Y401387
X407000Y401500
X426387Y401887
X407000Y407515
X402700Y407700
X419900Y407900
X413213Y411087
X433900Y412500
X426387Y413150
X432300Y414200
X435400Y414200
X409447Y419700
X430400Y419700
X470200Y443700
X451200Y405800
X445900Y405800
X440700Y399200
X454700Y391350
X443850Y391350
X470461Y384261
X451200Y372000
X440700Y372000
X470461Y371939
X440600Y291500
X443900Y269800
X469241Y269441
X475540Y269340
X478700Y253600
X471000Y253300
X446470Y237830
X442730Y237770
X448300Y235100
X477200Y225400
X466800Y224300
X458500Y219900
X456200Y217700
X459808Y215498
X466547Y214600
X449153Y214000
X440047Y214000
X456500Y212600
X478830Y212070
X472970Y212000
X472400Y198700
X478700Y198600
X475540Y198340
X469241Y198241
X446470Y190530
X442730Y190530
X444070Y166537
X440330Y166537
X478650Y154396
X472400Y154396
X465600Y150400
X463100Y147400
X477400Y141200
X472970Y141184
X469230Y141184
X492100Y98600
X480900Y141200
X494230Y141184
X497970Y141170
X510130Y141184
X513870Y141184
X519553Y143347
X503887Y144213
X484989Y154396
X511000Y157200
X517300Y180200
X511200Y180300
X514200Y183500
X509200Y183700
X481800Y198300
X494438Y198362
X490900Y199663
X501663Y199663
X510263Y199663
X484930Y201826
X496500Y209900
X494430Y212100
X498170Y212070
X510170Y212437
X485253Y214600
X503887Y214587
X513350Y214950
X516485Y215216
X519635Y215216
X482000Y225503
X487800Y226700
X488139Y257400
X481100Y258800
X516500Y259700
X484989Y259811
X494438Y269762
X491500Y269900
X484930Y272916
X488700Y273000
X503930Y273030
X507670Y273030
X490000Y279000
X510911Y359489
X515750Y359450
X490628Y362472
X539800Y443400
X558202Y415902
X550200Y411000
X532650Y359450
X559650Y333050
X550000Y315400
X553715Y264847
X559600Y228500
X557467Y216100
X547981Y215619
X544832Y215632
X538532Y215600
X541682Y215518
X535383Y215517
X532233Y215433
X529083Y215383
X525934Y215334
X522784Y215216
X551130Y212370
X553341Y193741
X531700Y183600
X526000Y183500
X520300Y183500
X537800Y183400
X523100Y180200
X540500Y180100
X528800Y180100
X534400Y180000
X537970Y141184
X534230Y141184
X551030Y141070
X547430Y141100
X592800Y101500
X592800Y129300
X568050Y138850
X561750Y147650
X577600Y161000
X566700Y228400
X579500Y228600
X585900Y228600
X589300Y228600
X573300Y228700
X582900Y231700
X576200Y231900
X563600Y232000
X570000Y232000
X594600Y281500
X599150Y287850
X563000Y297400
X584900Y297400
X599118Y303818
X562450Y313350
X585650Y313350
X599150Y319650
X573400Y372200
X563300Y372400
X568300Y372400
X578300Y372400
X584000Y377700
X584000Y390400
X568300Y404000
X591000Y411000
X583398Y415902
X618100Y392900
X618100Y387600
X618054Y378654
X626779Y359980
X668700Y415300
X662200Y415000
X641987Y390578
X641987Y382654
X660035Y376265
X665944Y376244
X670898Y356702
X658300Y356700
X667749Y356649
X672473Y335727
X666174Y335674
X647276Y324521
X667363Y81882
X662600Y78600
X656500Y78572
X698781Y83481
X685072Y335728
X697670Y335670
X680347Y356747
X683497Y356697
X692946Y356746
X714993Y356707
X748261Y367261
X732316Y324521
X766652Y169148
X766700Y137500
X766660Y130440
X766500Y98600
T02
X407976Y424725
R03X7874
T03
X86101Y63119
X96699Y63119
X80802Y72300
X101998Y72300
X86101Y81481
X96699Y81481
X140000Y144480
X150000Y144480
X140000Y174480
X150000Y174480
X140000Y301872
X150000Y301872
X140000Y331872
X150000Y331872
X86101Y423919
X96699Y423919
X80802Y433100
X101998Y433100
X86101Y442281
X96699Y442281
X230888Y443849
R02X-10000
X230888Y433849
R02X-10000
X233900Y370343
R02X-10000
X170000Y331872
X160000Y331872
X160000Y301872
X170000Y174480
X160000Y174480
X160000Y144480
X253900Y370343
R03X10000
X330700Y345973
R03X10000
X330700Y375973
R03X10000
X487345Y372727
R03X10000
X492345Y382727
R03X10000
X775399Y442281
X764801Y442281
X780698Y433100
X759502Y433100
X775399Y423919
X764801Y423919
X775299Y81481
X764701Y81481
X780598Y72300
X759402Y72300
X775299Y63119
X764701Y63119
T04
X119428Y149686
X108246Y155138
X119428Y160591
X108246Y166044
X119428Y171497
X108246Y176950
X119428Y182402
X108246Y187855
X119428Y193308
X119428Y305536
X108246Y310988
X119428Y316441
X108246Y321894
X119428Y327346
X108246Y332799
X119428Y338252
X108246Y343705
X119428Y349158
X298189Y406409
X309094Y406409
X303642Y417591
X314547Y417591
X320000Y406409
X330906Y406409
X325453Y417591
X336358Y417591
X341811Y406409
X718900Y83974
X718900Y68226
T05
X478742Y427018
X488742Y427018
X520908Y427018
X530908Y427018
T06
X714500Y413402
X734500Y413402
X724500Y423402
X714500Y433402
X734500Y433402
T07
X174071Y373144
X157535Y373144
X141000Y373144
X141000Y394798
X157535Y394798
X174071Y394798
X474333Y395719
X535317Y395719
T08
X642158Y157027
X739009Y157027
T09
X91400Y72300
X91400Y433100
X770100Y433100
X770000Y72300
T10
X113837Y122284
X113837Y220709
X113837Y278134
X113837Y376559
X270787Y412000
X369213Y412000
T11
X559383Y424341
X582217Y424341
T12
X641371Y346200
T13
X739796Y346200
T14
X482384Y407746
X527266Y407746
M30
