G04 ================== begin FILE IDENTIFICATION RECORD ==================*
G04 Layout Name:  D:/documents/Allegro_PRJ/BSMU/GERBER6/PCB/bsmu_h750_v1.0.brd*
G04 Film Name:    NCDRILL*
G04 File Format:  Gerber RS274X*
G04 File Origin:  Cadence Allegro 17.4-S026*
G04 Origin Date:  Mon May 15 17:11:30 2023*
G04 *
G04 Layer:  MANUFACTURING/NCDRILL_LEGEND*
G04 Layer:  MANUFACTURING/NCDRILL_FIGURE*
G04 Layer:  MANUFACTURING/NCLEGEND-1-4*
G04 Layer:  BOARD GEOMETRY/DESIGN_OUTLINE*
G04 *
G04 Offset:    (0.000 0.000)*
G04 Mirror:    No*
G04 Mode:      Positive*
G04 Rotation:  0*
G04 FullContactRelief:  No*
G04 UndefLineWidth:     0.000*
G04 ================== end FILE IDENTIFICATION RECORD ====================*
%FSLAX55Y55*MOIN*%
%IR0*IPPOS*OFA0.00000B0.00000*MIA0B0*SFA1.00000B1.00000*%
%AMMACRO24*
1,1,0.0,-.01227,-.021653*
20,1,0.0,-.01227,-.021653,-.01227,.007217,0.0*
1,1,0.0,-.01227,.007217*
1,1,0.0,-.01227,0.0*
20,1,0.0,-.01227,0.0,-.009383,.003609,0.0*
1,1,0.0,-.009383,.003609*
20,1,0.0,-.009383,.003609,-.005052,.006496,0.0*
1,1,0.0,-.005052,.006496*
20,1,0.0,-.005052,.006496,.000723,.007217,0.0*
1,1,0.0,.000723,.007217*
20,1,0.0,.000723,.007217,.005774,.006496,0.0*
1,1,0.0,.005774,.006496*
20,1,0.0,.005774,.006496,.010105,.003609,0.0*
1,1,0.0,.010105,.003609*
20,1,0.0,.010105,.003609,.012271,-.001443,0.0*
1,1,0.0,.012271,-.001443*
20,1,0.0,.012271,-.001443,.012271,-.021653,0.0*
1,1,0.0,.012271,-.021653*
%
%ADD24MACRO24*%
%AMMACRO16*
1,1,0.0,0.0,.021656*
20,1,0.0,0.0,.021656,0.0,-.021655,0.0*
1,1,0.0,0.0,-.021655*
1,1,0.0,-.010105,.007218*
20,1,0.0,-.010105,.007218,.010106,.007218,0.0*
1,1,0.0,.010106,.007218*
%
%ADD16MACRO16*%
%AMMACRO23*
1,1,0.0,.021654,.027559*
20,1,0.0,.021654,.027559,.021654,-.027559,0.0*
1,1,0.0,.021654,-.027559*
20,1,0.0,.021654,-.027559,-.021654,-.027559,0.0*
1,1,0.0,-.021654,-.027559*
20,1,0.0,-.021654,-.027559,-.021654,.027559,0.0*
1,1,0.0,-.021654,.027559*
20,1,0.0,-.021654,.027559,.021654,.027559,0.0*
1,1,0.0,.021654,.027559*
1,1,0.0,-.010826,-.010826*
20,1,0.0,-.010826,-.010826,-.010826,.003609,0.0*
1,1,0.0,-.010826,.003609*
1,1,0.0,-.010826,-.000361*
20,1,0.0,-.010826,-.000361,-.009744,.001444,0.0*
1,1,0.0,-.009744,.001444*
20,1,0.0,-.009744,.001444,-.007939,.002887,0.0*
1,1,0.0,-.007939,.002887*
20,1,0.0,-.007939,.002887,-.005413,.003609,0.0*
1,1,0.0,-.005413,.003609*
20,1,0.0,-.005413,.003609,-.002887,.002887,0.0*
1,1,0.0,-.002887,.002887*
20,1,0.0,-.002887,.002887,-.001082,.001444,0.0*
1,1,0.0,-.001082,.001444*
20,1,0.0,-.001082,.001444,0.0,-.000361,0.0*
1,1,0.0,0.0,-.000361*
20,1,0.0,0.0,-.000361,0.0,-.010826,0.0*
1,1,0.0,0.0,-.010826*
1,1,0.0,0.0,-.000361*
20,1,0.0,0.0,-.000361,.001083,.001444,0.0*
1,1,0.0,.001083,.001444*
20,1,0.0,.001083,.001444,.002887,.002887,0.0*
1,1,0.0,.002887,.002887*
20,1,0.0,.002887,.002887,.005414,.003609,0.0*
1,1,0.0,.005414,.003609*
20,1,0.0,.005414,.003609,.00794,.002887,0.0*
1,1,0.0,.00794,.002887*
20,1,0.0,.00794,.002887,.009745,.001444,0.0*
1,1,0.0,.009745,.001444*
20,1,0.0,.009745,.001444,.010827,-.000721,0.0*
1,1,0.0,.010827,-.000721*
20,1,0.0,.010827,-.000721,.010827,-.010826,0.0*
1,1,0.0,.010827,-.010826*
%
%ADD23MACRO23*%
%AMMACRO25*
1,1,0.0,.021654,.027559*
20,1,0.0,.021654,.027559,.021654,-.027559,0.0*
1,1,0.0,.021654,-.027559*
20,1,0.0,.021654,-.027559,-.021654,-.027559,0.0*
1,1,0.0,-.021654,-.027559*
20,1,0.0,-.021654,-.027559,-.021654,.027559,0.0*
1,1,0.0,-.021654,.027559*
20,1,0.0,-.021654,.027559,.021654,.027559,0.0*
1,1,0.0,.021654,.027559*
1,1,0.0,-.005052,-.010826*
20,1,0.0,-.005052,-.010826,-.005052,.003609,0.0*
1,1,0.0,-.005052,.003609*
1,1,0.0,-.005052,.000722*
20,1,0.0,-.005052,.000722,-.003248,.002166,0.0*
1,1,0.0,-.003248,.002166*
20,1,0.0,-.003248,.002166,-.001443,.003248,0.0*
1,1,0.0,-.001443,.003248*
20,1,0.0,-.001443,.003248,.001083,.003609,0.0*
1,1,0.0,.001083,.003609*
20,1,0.0,.001083,.003609,.002887,.003248,0.0*
1,1,0.0,.002887,.003248*
20,1,0.0,.002887,.003248,.005053,.002166,0.0*
1,1,0.0,.005053,.002166*
%
%ADD25MACRO25*%
%AMMACRO14*
1,1,0.0,.025,0.0*
20,1,0.0,.025,0.0,-.025,0.0,0.0*
1,1,0.0,-.025,0.0*
1,1,0.0,0.0,.025*
20,1,0.0,0.0,.025,0.0,-.025,0.0*
1,1,0.0,0.0,-.025*
1,1,0.0,.015833,.013334*
20,1,0.0,.015833,.013334,.0175,.014583,0.0*
1,1,0.0,.0175,.014583*
20,1,0.0,.0175,.014583,.01875,.016666,0.0*
1,1,0.0,.01875,.016666*
20,1,0.0,.01875,.016666,.019584,.019584,0.0*
1,1,0.0,.019584,.019584*
20,1,0.0,.019584,.019584,.01875,.022083,0.0*
1,1,0.0,.01875,.022083*
20,1,0.0,.01875,.022083,.017083,.02375,0.0*
1,1,0.0,.017083,.02375*
20,1,0.0,.017083,.02375,.014167,.025,0.0*
1,1,0.0,.014167,.025*
20,1,0.0,.014167,.025,.002917,.025,0.0*
1,1,0.0,.002917,.025*
20,1,0.0,.002917,.025,.002917,0.0,0.0*
1,1,0.0,.002917,0.0*
20,1,0.0,.002917,0.0,.016667,0.0,0.0*
1,1,0.0,.016667,0.0*
20,1,0.0,.016667,0.0,.019584,.001666,0.0*
1,1,0.0,.019584,.001666*
20,1,0.0,.019584,.001666,.02125,.004167,0.0*
1,1,0.0,.02125,.004167*
20,1,0.0,.02125,.004167,.022083,.007083,0.0*
1,1,0.0,.022083,.007083*
20,1,0.0,.022083,.007083,.02125,.009999,0.0*
1,1,0.0,.02125,.009999*
20,1,0.0,.02125,.009999,.01875,.0125,0.0*
1,1,0.0,.01875,.0125*
20,1,0.0,.01875,.0125,.015833,.013334,0.0*
1,1,0.0,.015833,.013334*
20,1,0.0,.015833,.013334,.002917,.013334,0.0*
1,1,0.0,.002917,.013334*
%
%ADD14MACRO14*%
%AMMACRO20*
1,1,0.0,.021654,0.0*
20,1,0.0,.021654,0.0,.010827,.018752,0.0*
1,1,0.0,.010827,.018752*
20,1,0.0,.010827,.018752,-.010827,.018752,0.0*
1,1,0.0,-.010827,.018752*
20,1,0.0,-.010827,.018752,-.021654,0.0,0.0*
1,1,0.0,-.021654,0.0*
20,1,0.0,-.021654,0.0,-.010827,-.018752,0.0*
1,1,0.0,-.010827,-.018752*
20,1,0.0,-.010827,-.018752,.010827,-.018752,0.0*
1,1,0.0,.010827,-.018752*
20,1,0.0,.010827,-.018752,.021654,0.0,0.0*
1,1,0.0,.021654,0.0*
1,1,0.0,-.006496,-.010826*
20,1,0.0,-.006496,-.010826,-.006496,.010827,0.0*
1,1,0.0,-.006496,.010827*
1,1,0.0,-.006496,0.0*
20,1,0.0,-.006496,0.0,-.004691,.002166,0.0*
1,1,0.0,-.004691,.002166*
20,1,0.0,-.004691,.002166,-.002525,.003248,0.0*
1,1,0.0,-.002525,.003248*
20,1,0.0,-.002525,.003248,-.000361,.003609,0.0*
1,1,0.0,-.000361,.003609*
20,1,0.0,-.000361,.003609,.002887,.002887,0.0*
1,1,0.0,.002887,.002887*
20,1,0.0,.002887,.002887,.005053,.001444,0.0*
1,1,0.0,.005053,.001444*
20,1,0.0,.005053,.001444,.006497,-.001082,0.0*
1,1,0.0,.006497,-.001082*
20,1,0.0,.006497,-.001082,.006497,-.003969,0.0*
1,1,0.0,.006497,-.003969*
20,1,0.0,.006497,-.003969,.005774,-.006856,0.0*
1,1,0.0,.005774,-.006856*
20,1,0.0,.005774,-.006856,.004331,-.009022,0.0*
1,1,0.0,.004331,-.009022*
20,1,0.0,.004331,-.009022,.001805,-.010465,0.0*
1,1,0.0,.001805,-.010465*
20,1,0.0,.001805,-.010465,-.000361,-.010826,0.0*
1,1,0.0,-.000361,-.010826*
20,1,0.0,-.000361,-.010826,-.002525,-.010465,0.0*
1,1,0.0,-.002525,-.010465*
20,1,0.0,-.002525,-.010465,-.004691,-.009383,0.0*
1,1,0.0,-.004691,-.009383*
20,1,0.0,-.004691,-.009383,-.006496,-.007579,0.0*
1,1,0.0,-.006496,-.007579*
%
%ADD20MACRO20*%
%AMMACRO22*
1,1,0.0,.010498,.002625*
20,1,0.0,.010498,.002625,.015748,.006561,0.0*
1,1,0.0,.015748,.006561*
20,1,0.0,.015748,.006561,.019684,.013122,0.0*
1,1,0.0,.019684,.013122*
20,1,0.0,.019684,.013122,.022311,.022311,0.0*
1,1,0.0,.022311,.022311*
20,1,0.0,.022311,.022311,.019684,.030183,0.0*
1,1,0.0,.019684,.030183*
20,1,0.0,.019684,.030183,.014436,.035431,0.0*
1,1,0.0,.014436,.035431*
20,1,0.0,.014436,.035431,.005249,.03937,0.0*
1,1,0.0,.005249,.03937*
20,1,0.0,.005249,.03937,-.030183,.03937,0.0*
1,1,0.0,-.030183,.03937*
20,1,0.0,-.030183,.03937,-.030183,-.03937,0.0*
1,1,0.0,-.030183,-.03937*
20,1,0.0,-.030183,-.03937,.013124,-.03937,0.0*
1,1,0.0,.013124,-.03937*
20,1,0.0,.013124,-.03937,.022311,-.034122,0.0*
1,1,0.0,.022311,-.034122*
20,1,0.0,.022311,-.034122,.027559,-.026247,0.0*
1,1,0.0,.027559,-.026247*
20,1,0.0,.027559,-.026247,.030183,-.01706,0.0*
1,1,0.0,.030183,-.01706*
20,1,0.0,.030183,-.01706,.027559,-.007876,0.0*
1,1,0.0,.027559,-.007876*
20,1,0.0,.027559,-.007876,.019684,-.000001,0.0*
1,1,0.0,.019684,-.000001*
20,1,0.0,.019684,-.000001,.010498,.002625,0.0*
1,1,0.0,.010498,.002625*
20,1,0.0,.010498,.002625,-.030183,.002625,0.0*
1,1,0.0,-.030183,.002625*
%
%ADD22MACRO22*%
%AMMACRO11*
1,1,0.0,-.026247,-.023623*
20,1,0.0,-.026247,-.023623,-.019684,-.031498,0.0*
1,1,0.0,-.019684,-.031498*
20,1,0.0,-.019684,-.031498,-.011812,-.036746,0.0*
1,1,0.0,-.011812,-.036746*
20,1,0.0,-.011812,-.036746,-.002625,-.03937,0.0*
1,1,0.0,-.002625,-.03937*
20,1,0.0,-.002625,-.03937,.007874,-.036746,0.0*
1,1,0.0,.007874,-.036746*
20,1,0.0,.007874,-.036746,.015748,-.031498,0.0*
1,1,0.0,.015748,-.031498*
20,1,0.0,.015748,-.031498,.023623,-.023623,0.0*
1,1,0.0,.023623,-.023623*
20,1,0.0,.023623,-.023623,.026247,-.013124,0.0*
1,1,0.0,.026247,-.013124*
20,1,0.0,.026247,-.013124,.026247,.03937,0.0*
1,1,0.0,.026247,.03937*
%
%ADD11MACRO11*%
%AMMACRO12*
1,1,0.0,-.028871,-.03937*
20,1,0.0,-.028871,-.03937,-.028871,.03937,0.0*
1,1,0.0,-.028871,.03937*
1,1,0.0,.020996,.03937*
20,1,0.0,.020996,.03937,-.028871,-.009188,0.0*
1,1,0.0,-.028871,-.009188*
1,1,0.0,.028871,-.03937*
20,1,0.0,.028871,-.03937,-.006561,.013122,0.0*
1,1,0.0,-.006561,.013122*
%
%ADD12MACRO12*%
%AMMACRO21*
1,1,0.0,-.011809,-.021656*
20,1,0.0,-.011809,-.021656,-.011809,.021656,0.0*
1,1,0.0,-.011809,.021656*
20,1,0.0,-.011809,.021656,-.01163,.023707,0.0*
1,1,0.0,-.01163,.023707*
20,1,0.0,-.01163,.023707,-.011097,.025695,0.0*
1,1,0.0,-.011097,.025695*
20,1,0.0,-.011097,.025695,-.010227,.02756,0.0*
1,1,0.0,-.010227,.02756*
20,1,0.0,-.010227,.02756,-.009046,.029247,0.0*
1,1,0.0,-.009046,.029247*
20,1,0.0,-.009046,.029247,-.007591,.030702,0.0*
1,1,0.0,-.007591,.030702*
20,1,0.0,-.007591,.030702,-.005905,.031883,0.0*
1,1,0.0,-.005905,.031883*
20,1,0.0,-.005905,.031883,-.004039,.032753,0.0*
1,1,0.0,-.004039,.032753*
20,1,0.0,-.004039,.032753,-.002051,.033286,0.0*
1,1,0.0,-.002051,.033286*
20,1,0.0,-.002051,.033286,0.0,.033465,0.0*
1,1,0.0,0.0,.033465*
20,1,0.0,0.0,.033465,.002051,.033286,0.0*
1,1,0.0,.002051,.033286*
20,1,0.0,.002051,.033286,.004039,.032753,0.0*
1,1,0.0,.004039,.032753*
20,1,0.0,.004039,.032753,.005904,.031883,0.0*
1,1,0.0,.005904,.031883*
20,1,0.0,.005904,.031883,.007591,.030702,0.0*
1,1,0.0,.007591,.030702*
20,1,0.0,.007591,.030702,.009046,.029247,0.0*
1,1,0.0,.009046,.029247*
20,1,0.0,.009046,.029247,.010227,.027561,0.0*
1,1,0.0,.010227,.027561*
20,1,0.0,.010227,.027561,.011097,.025695,0.0*
1,1,0.0,.011097,.025695*
20,1,0.0,.011097,.025695,.01163,.023707,0.0*
1,1,0.0,.01163,.023707*
20,1,0.0,.01163,.023707,.011809,.021656,0.0*
1,1,0.0,.011809,.021656*
20,1,0.0,.011809,.021656,.011809,-.021656,0.0*
1,1,0.0,.011809,-.021656*
20,1,0.0,.011809,-.021656,.01163,-.023707,0.0*
1,1,0.0,.01163,-.023707*
20,1,0.0,.01163,-.023707,.011097,-.025695,0.0*
1,1,0.0,.011097,-.025695*
20,1,0.0,.011097,-.025695,.010227,-.02756,0.0*
1,1,0.0,.010227,-.02756*
20,1,0.0,.010227,-.02756,.009046,-.029247,0.0*
1,1,0.0,.009046,-.029247*
20,1,0.0,.009046,-.029247,.007591,-.030702,0.0*
1,1,0.0,.007591,-.030702*
20,1,0.0,.007591,-.030702,.005905,-.031883,0.0*
1,1,0.0,.005905,-.031883*
20,1,0.0,.005905,-.031883,.004039,-.032753,0.0*
1,1,0.0,.004039,-.032753*
20,1,0.0,.004039,-.032753,.002051,-.033286,0.0*
1,1,0.0,.002051,-.033286*
20,1,0.0,.002051,-.033286,0.0,-.033465,0.0*
1,1,0.0,0.0,-.033465*
20,1,0.0,0.0,-.033465,-.002051,-.033286,0.0*
1,1,0.0,-.002051,-.033286*
20,1,0.0,-.002051,-.033286,-.004039,-.032753,0.0*
1,1,0.0,-.004039,-.032753*
20,1,0.0,-.004039,-.032753,-.005904,-.031883,0.0*
1,1,0.0,-.005904,-.031883*
20,1,0.0,-.005904,-.031883,-.007591,-.030702,0.0*
1,1,0.0,-.007591,-.030702*
20,1,0.0,-.007591,-.030702,-.009046,-.029247,0.0*
1,1,0.0,-.009046,-.029247*
20,1,0.0,-.009046,-.029247,-.010227,-.027561,0.0*
1,1,0.0,-.010227,-.027561*
20,1,0.0,-.010227,-.027561,-.011097,-.025695,0.0*
1,1,0.0,-.011097,-.025695*
20,1,0.0,-.011097,-.025695,-.01163,-.023707,0.0*
1,1,0.0,-.01163,-.023707*
20,1,0.0,-.01163,-.023707,-.011809,-.021656,0.0*
1,1,0.0,-.011809,-.021656*
%
%ADD21MACRO21*%
%AMMACRO17*
1,1,0.0,-.010827,-.002165*
20,1,0.0,-.010827,-.002165,.012273,-.002165,0.0*
1,1,0.0,.012273,-.002165*
20,1,0.0,.012273,-.002165,.010106,.002888,0.0*
1,1,0.0,.010106,.002888*
20,1,0.0,.010106,.002888,.006498,.005775,0.0*
1,1,0.0,.006498,.005775*
20,1,0.0,.006498,.005775,.001445,.007218,0.0*
1,1,0.0,.001445,.007218*
20,1,0.0,.001445,.007218,-.003609,.006496,0.0*
1,1,0.0,-.003609,.006496*
20,1,0.0,-.003609,.006496,-.00794,.004331,0.0*
1,1,0.0,-.00794,.004331*
20,1,0.0,-.00794,.004331,-.010827,-.000722,0.0*
1,1,0.0,-.010827,-.000722*
20,1,0.0,-.010827,-.000722,-.012272,-.005053,0.0*
1,1,0.0,-.012272,-.005053*
20,1,0.0,-.012272,-.005053,-.012272,-.009384,0.0*
1,1,0.0,-.012272,-.009384*
20,1,0.0,-.012272,-.009384,-.010827,-.013715,0.0*
1,1,0.0,-.010827,-.013715*
20,1,0.0,-.010827,-.013715,-.007218,-.018047,0.0*
1,1,0.0,-.007218,-.018047*
20,1,0.0,-.007218,-.018047,-.002887,-.020933,0.0*
1,1,0.0,-.002887,-.020933*
20,1,0.0,-.002887,-.020933,.002166,-.021655,0.0*
1,1,0.0,.002166,-.021655*
20,1,0.0,.002166,-.021655,.007219,-.020212,0.0*
1,1,0.0,.007219,-.020212*
20,1,0.0,.007219,-.020212,.012273,-.015881,0.0*
1,1,0.0,.012273,-.015881*
%
%ADD17MACRO17*%
%AMMACRO18*
1,1,0.0,.03937,.03937*
20,1,0.0,.03937,.03937,.03937,-.03937,0.0*
1,1,0.0,.03937,-.03937*
20,1,0.0,.03937,-.03937,-.03937,-.03937,0.0*
1,1,0.0,-.03937,-.03937*
20,1,0.0,-.03937,-.03937,-.03937,.03937,0.0*
1,1,0.0,-.03937,.03937*
20,1,0.0,-.03937,.03937,.03937,.03937,0.0*
1,1,0.0,.03937,.03937*
1,1,0.0,-.013124,.019685*
20,1,0.0,-.013124,.019685,-.013124,-.019685,0.0*
1,1,0.0,-.013124,-.019685*
20,1,0.0,-.013124,-.019685,.013124,-.019685,0.0*
1,1,0.0,.013124,-.019685*
%
%ADD18MACRO18*%
%AMMACRO15*
1,1,0.0,-.010105,-.032483*
20,1,0.0,-.010105,-.032483,-.005052,-.03537,0.0*
1,1,0.0,-.005052,-.03537*
20,1,0.0,-.005052,-.03537,.000723,-.036092,0.0*
1,1,0.0,.000723,-.036092*
20,1,0.0,.000723,-.036092,.005775,-.03537,0.0*
1,1,0.0,.005775,-.03537*
20,1,0.0,.005775,-.03537,.010106,-.031761,0.0*
1,1,0.0,.010106,-.031761*
20,1,0.0,.010106,-.031761,.012994,-.026708,0.0*
1,1,0.0,.012994,-.026708*
20,1,0.0,.012994,-.026708,.012994,.007218,0.0*
1,1,0.0,.012994,.007218*
1,1,0.0,.012994,.001445*
20,1,0.0,.012994,.001445,.010106,.004331,0.0*
1,1,0.0,.010106,.004331*
20,1,0.0,.010106,.004331,.005775,.006496,0.0*
1,1,0.0,.005775,.006496*
20,1,0.0,.005775,.006496,.000723,.007218,0.0*
1,1,0.0,.000723,.007218*
20,1,0.0,.000723,.007218,-.005052,.005775,0.0*
1,1,0.0,-.005052,.005775*
20,1,0.0,-.005052,.005775,-.008662,.002888,0.0*
1,1,0.0,-.008662,.002888*
20,1,0.0,-.008662,.002888,-.01155,-.002165,0.0*
1,1,0.0,-.01155,-.002165*
20,1,0.0,-.01155,-.002165,-.012993,-.007218,0.0*
1,1,0.0,-.012993,-.007218*
20,1,0.0,-.012993,-.007218,-.012272,-.01155,0.0*
1,1,0.0,-.012272,-.01155*
20,1,0.0,-.012272,-.01155,-.009384,-.016603,0.0*
1,1,0.0,-.009384,-.016603*
20,1,0.0,-.009384,-.016603,-.005052,-.020212,0.0*
1,1,0.0,-.005052,-.020212*
20,1,0.0,-.005052,-.020212,.000723,-.021655,0.0*
1,1,0.0,.000723,-.021655*
20,1,0.0,.000723,-.021655,.005053,-.020933,0.0*
1,1,0.0,.005053,-.020933*
20,1,0.0,.005053,-.020933,.010106,-.018047,0.0*
1,1,0.0,.010106,-.018047*
20,1,0.0,.010106,-.018047,.012994,-.01516,0.0*
1,1,0.0,.012994,-.01516*
%
%ADD15MACRO15*%
%AMMACRO19*
1,1,0.0,0.0,.007218*
20,1,0.0,0.0,.007218,0.0,-.021655,0.0*
1,1,0.0,0.0,-.021655*
1,1,0.0,0.0,.018768*
20,1,0.0,0.0,.018768,-.001444,.01949,0.0*
1,1,0.0,-.001444,.01949*
20,1,0.0,-.001444,.01949,-.001444,.020934,0.0*
1,1,0.0,-.001444,.020934*
20,1,0.0,-.001444,.020934,0.0,.021656,0.0*
1,1,0.0,0.0,.021656*
20,1,0.0,0.0,.021656,.001445,.020934,0.0*
1,1,0.0,.001445,.020934*
20,1,0.0,.001445,.020934,.001445,.01949,0.0*
1,1,0.0,.001445,.01949*
20,1,0.0,.001445,.01949,0.0,.018768,0.0*
1,1,0.0,0.0,.018768*
%
%ADD19MACRO19*%
%AMMACRO10*
1,1,0.0,-.010104,-.03248*
20,1,0.0,-.010104,-.03248,-.005052,-.035367,0.0*
1,1,0.0,-.005052,-.035367*
20,1,0.0,-.005052,-.035367,.000723,-.036088,0.0*
1,1,0.0,.000723,-.036088*
20,1,0.0,.000723,-.036088,.005774,-.035367,0.0*
1,1,0.0,.005774,-.035367*
20,1,0.0,.005774,-.035367,.010105,-.031758,0.0*
1,1,0.0,.010105,-.031758*
20,1,0.0,.010105,-.031758,.012993,-.026706,0.0*
1,1,0.0,.012993,-.026706*
20,1,0.0,.012993,-.026706,.012993,.007217,0.0*
1,1,0.0,.012993,.007217*
1,1,0.0,.012993,.001444*
20,1,0.0,.012993,.001444,.010105,.004331,0.0*
1,1,0.0,.010105,.004331*
20,1,0.0,.010105,.004331,.005774,.006496,0.0*
1,1,0.0,.005774,.006496*
20,1,0.0,.005774,.006496,.000723,.007217,0.0*
1,1,0.0,.000723,.007217*
20,1,0.0,.000723,.007217,-.005052,.005774,0.0*
1,1,0.0,-.005052,.005774*
20,1,0.0,-.005052,.005774,-.008661,.002888,0.0*
1,1,0.0,-.008661,.002888*
20,1,0.0,-.008661,.002888,-.011549,-.002165,0.0*
1,1,0.0,-.011549,-.002165*
20,1,0.0,-.011549,-.002165,-.012992,-.007218,0.0*
1,1,0.0,-.012992,-.007218*
20,1,0.0,-.012992,-.007218,-.01227,-.011549,0.0*
1,1,0.0,-.01227,-.011549*
20,1,0.0,-.01227,-.011549,-.009383,-.016602,0.0*
1,1,0.0,-.009383,-.016602*
20,1,0.0,-.009383,-.016602,-.005052,-.02021,0.0*
1,1,0.0,-.005052,-.02021*
20,1,0.0,-.005052,-.02021,.000723,-.021653,0.0*
1,1,0.0,.000723,-.021653*
20,1,0.0,.000723,-.021653,.005053,-.020931,0.0*
1,1,0.0,.005053,-.020931*
20,1,0.0,.005053,-.020931,.010105,-.018045,0.0*
1,1,0.0,.010105,-.018045*
20,1,0.0,.010105,-.018045,.012993,-.015158,0.0*
1,1,0.0,.012993,-.015158*
%
%ADD10MACRO10*%
%AMMACRO13*
1,1,0.0,-.01227,-.021653*
20,1,0.0,-.01227,-.021653,-.01227,.021654,0.0*
1,1,0.0,-.01227,.021654*
1,1,0.0,-.01227,.000723*
20,1,0.0,-.01227,.000723,-.008661,.004331,0.0*
1,1,0.0,-.008661,.004331*
20,1,0.0,-.008661,.004331,-.005052,.006496,0.0*
1,1,0.0,-.005052,.006496*
20,1,0.0,-.005052,.006496,.000723,.007217,0.0*
1,1,0.0,.000723,.007217*
20,1,0.0,.000723,.007217,.005053,.006496,0.0*
1,1,0.0,.005053,.006496*
20,1,0.0,.005053,.006496,.010105,.003609,0.0*
1,1,0.0,.010105,.003609*
20,1,0.0,.010105,.003609,.012271,-.000722,0.0*
1,1,0.0,.012271,-.000722*
20,1,0.0,.012271,-.000722,.012271,-.021653,0.0*
1,1,0.0,.012271,-.021653*
%
%ADD13MACRO13*%
%LPD*%
G75*
G54D10*
X86101Y63119D03*
Y81481D03*
X80802Y72300D03*
X86101Y423919D03*
Y442281D03*
X80802Y433100D03*
X96699Y63119D03*
Y81481D03*
X101998Y72300D03*
X96699Y423919D03*
Y442281D03*
X101998Y433100D03*
X764701Y63119D03*
Y81481D03*
X759402Y72300D03*
X764801Y423919D03*
Y442281D03*
X759502Y433100D03*
X775299Y63119D03*
Y81481D03*
X780598Y72300D03*
X775399Y423919D03*
Y442281D03*
X780698Y433100D03*
X834800Y349272D03*
G54D11*
X91400Y72300D03*
Y433100D03*
X770000Y72300D03*
X770100Y433100D03*
X834800Y266596D03*
G54D20*
X559383Y424341D03*
X582217D03*
X834800Y242974D03*
G54D21*
X553788Y422026D03*
Y438365D03*
X587812Y422026D03*
Y438365D03*
X834800Y195730D03*
G54D12*
X113837Y122284D03*
Y220709D03*
Y278134D03*
Y376559D03*
X270787Y412000D03*
X369213D03*
X834800Y254784D03*
G54D13*
X108246Y155138D03*
X119428Y149686D03*
X108246Y166044D03*
X119428Y171497D03*
Y160591D03*
X108246Y187855D03*
Y176950D03*
X119428Y182402D03*
Y193308D03*
Y305536D03*
X108246Y321894D03*
Y310988D03*
X119428Y327347D03*
Y316441D03*
X108246Y343705D03*
Y332799D03*
X119428Y338252D03*
Y349158D03*
X309094Y406409D03*
X298189D03*
X303642Y417591D03*
X320000Y406409D03*
X325453Y417591D03*
X314547D03*
X341811Y406409D03*
X330906D03*
X336358Y417591D03*
X718900Y68226D03*
Y83974D03*
X834800Y325650D03*
G54D22*
X642158Y157027D03*
X739009D03*
X834800Y278406D03*
G54D14*
X132358Y186800D03*
Y344000D03*
X138657Y186643D03*
Y343900D03*
X188700Y306600D03*
X192200D03*
X195700D03*
X188700Y324100D03*
X192200D03*
X195700D03*
X188700Y320600D03*
X192200D03*
X195700D03*
X188700Y317100D03*
X192200D03*
X195700D03*
X188700Y313600D03*
X192200D03*
X195700D03*
X188700Y310100D03*
X192200D03*
X195700D03*
X216900Y271700D03*
X220400D03*
X216800Y268900D03*
X207365Y295865D03*
X208349Y336951D03*
X214884Y334116D03*
X220888Y422200D03*
X228700Y135900D03*
X225400Y141900D03*
X237300Y170200D03*
X234400Y172400D03*
X232200Y201600D03*
X233500Y198800D03*
X237300Y190300D03*
X234400Y193684D03*
X233600Y215100D03*
X237900Y213100D03*
X238900Y249400D03*
X239300Y271400D03*
X228200Y291300D03*
X234618Y302482D03*
X238699Y330401D03*
X252500Y118400D03*
X244200Y116800D03*
X256604Y201304D03*
X244359Y188745D03*
X248258Y205242D03*
X243600Y203400D03*
X243200Y211100D03*
X246400Y209100D03*
X240000Y210100D03*
X256582Y228863D03*
X256400Y232800D03*
X253200Y239100D03*
X240900Y226100D03*
X247900Y228400D03*
X241100Y254300D03*
X247300Y245100D03*
X251700Y242000D03*
X256865Y266265D03*
X249900Y262350D03*
X252600Y260400D03*
X255600Y258400D03*
X242800Y271400D03*
X246300D03*
X244200Y278824D03*
X240000Y305700D03*
X263700Y133700D03*
X266600Y131700D03*
X273300Y139500D03*
X270900Y155200D03*
X271300Y171600D03*
X268000Y217052D03*
X271100Y219021D03*
X265462Y230832D03*
X265431Y234769D03*
X271700Y236737D03*
X267374Y224926D03*
X267693Y250593D03*
X265350Y265850D03*
X269700Y291300D03*
X268700Y323900D03*
X272500D03*
X259101Y337501D03*
X289448Y113119D03*
X288500Y129100D03*
X278100Y123200D03*
X277800Y144200D03*
X275400Y141900D03*
X288400Y167400D03*
X290500Y174500D03*
X276200Y220989D03*
X285194Y238706D03*
X280000Y244611D03*
X290435Y295535D03*
X289451Y336251D03*
X279394Y337894D03*
X305700Y133700D03*
X296700Y131700D03*
X301100Y128200D03*
X297637Y142440D03*
X292700Y141500D03*
X294900Y144100D03*
X304493Y144493D03*
X307463Y171541D03*
X294700Y155200D03*
X297800Y187800D03*
X298270Y184030D03*
X300900Y191830D03*
X306100Y216800D03*
X296300Y357300D03*
X316786Y133414D03*
X322934Y130534D03*
X309090Y144310D03*
X322870Y153970D03*
X320200Y168947D03*
X323800D03*
X308401Y182800D03*
X320230Y178337D03*
X323970D03*
X320500Y190453D03*
X322363Y197470D03*
X323800Y190453D03*
X308300Y214400D03*
X311100Y218000D03*
X311000Y221600D03*
X320230Y209630D03*
X318400Y220700D03*
X316100Y222700D03*
X323970Y209700D03*
X316100Y238900D03*
X318400Y240800D03*
X316100Y268300D03*
X320919D03*
X323000Y306400D03*
Y323900D03*
Y320400D03*
Y316900D03*
Y313400D03*
Y309900D03*
X337877Y113119D03*
Y118119D03*
X325386Y133414D03*
X337100Y123100D03*
X328500Y141200D03*
X340477Y153400D03*
X342250Y151050D03*
X328200Y170700D03*
X337700Y187600D03*
X338000Y175700D03*
X336000Y172700D03*
X336725Y178575D03*
X328382Y188418D03*
X328500Y180544D03*
X340500Y190386D03*
X328497Y208103D03*
X325800Y220700D03*
X336166Y206134D03*
X328400Y220700D03*
X338500Y214200D03*
Y219700D03*
Y222561D03*
X338550Y216950D03*
X328400Y223851D03*
X328899Y239599D03*
X328000Y227000D03*
X341800Y232500D03*
X340477Y248123D03*
X325900Y240800D03*
X337500Y241000D03*
X339500Y243000D03*
X326500Y306400D03*
X330000D03*
X326500Y323900D03*
X330000D03*
X326500Y320400D03*
X330000D03*
X326500Y316900D03*
X330000D03*
X326500Y313400D03*
X330000D03*
X326500Y309900D03*
X330000D03*
X355800Y119100D03*
X359300D03*
X355800Y115600D03*
X359300D03*
X355800Y126100D03*
X359300D03*
X355800Y122600D03*
X359300D03*
X346400Y128100D03*
X354400Y140700D03*
X358200Y140300D03*
X346137Y144430D03*
X345656Y152844D03*
X352288Y143888D03*
X354257Y150100D03*
X348300Y151200D03*
X357415Y162726D03*
X354257Y165043D03*
X352100Y178300D03*
X346400Y184481D03*
X352288Y208600D03*
X357400Y214200D03*
X346383Y211583D03*
X348700Y224800D03*
X344000Y234800D03*
X344500Y240400D03*
X342446Y245900D03*
X353763Y269670D03*
X346137D03*
X348351Y261600D03*
X346137Y265930D03*
X358194Y274794D03*
X356225Y277725D03*
X375100Y107700D03*
X371900Y109800D03*
X366500Y134600D03*
X375600D03*
X376519Y123119D03*
X360200Y142400D03*
X371837Y144430D03*
X370000Y152500D03*
X362131Y151831D03*
X364099Y149500D03*
X371837Y148170D03*
X373942Y152458D03*
X361700Y166900D03*
X364500Y168900D03*
X359450Y164500D03*
X368000Y204600D03*
X372005Y204500D03*
X361800Y219700D03*
X364500Y222561D03*
X359450Y216950D03*
X375910Y241300D03*
X370005Y240700D03*
X375910Y261200D03*
X374000Y272353D03*
X361670Y269670D03*
X373810Y263227D03*
X369000Y265300D03*
X363200Y267100D03*
X371600Y277000D03*
X363900Y277200D03*
X367092D03*
X371600Y291400D03*
X363900Y291700D03*
X367092Y291608D03*
X373665Y343965D03*
X373935Y350265D03*
X376600Y113100D03*
X376900Y118000D03*
X376581Y128119D03*
X381600Y134700D03*
X393600Y141700D03*
X391658Y152500D03*
X391830Y148170D03*
X379500Y137900D03*
X381816Y170300D03*
X391000Y215200D03*
X383784Y234200D03*
X379847Y233700D03*
X377700Y245200D03*
X379800Y271484D03*
X383800Y267300D03*
X393600Y272353D03*
X393495Y263142D03*
X385753Y270853D03*
X379800Y276500D03*
X383800Y282300D03*
X389092Y392726D03*
X389900Y386500D03*
X410100Y141747D03*
X409375Y152925D03*
X407406Y142200D03*
X410200Y170100D03*
X400900Y221300D03*
X396200Y219100D03*
X402900Y227300D03*
X395595Y261300D03*
X401501Y271801D03*
X409187Y381484D03*
X406700Y379700D03*
X393700D03*
X402700Y407700D03*
X403708Y401387D03*
X407000Y407515D03*
Y401500D03*
X409447Y419700D03*
X413200Y130700D03*
X416700Y129292D03*
X411200Y127700D03*
X416800Y134800D03*
X420000Y136900D03*
X423400Y139200D03*
X415463Y144430D03*
X413300Y152972D03*
X425800Y141300D03*
X423000Y187100D03*
X420000Y186900D03*
X412200Y172100D03*
X419900Y183500D03*
X426100Y188600D03*
X421400Y225000D03*
X415100Y231400D03*
X419200Y272353D03*
X421186Y261386D03*
X419086Y263200D03*
X427600Y270602D03*
X411343Y274500D03*
X418000Y276300D03*
X415589Y296644D03*
X412900Y296400D03*
X416000Y384100D03*
X419500D03*
X423000D03*
X416000Y380600D03*
X419500D03*
X423000D03*
X416000Y377100D03*
X419500D03*
X423000D03*
X412700Y388428D03*
X426746Y387650D03*
X419900Y407900D03*
X419787Y401300D03*
X426387Y401887D03*
X413213Y411087D03*
X426387Y413150D03*
X430300Y151700D03*
X433500Y150600D03*
X428500Y146100D03*
Y143400D03*
X444070Y166537D03*
X440330D03*
X433500Y155200D03*
X430251D03*
X437700Y190386D03*
X442730Y190530D03*
X440047Y214000D03*
X439600Y237500D03*
X442730Y237770D03*
X429100Y260800D03*
X436000Y268300D03*
X432500Y268400D03*
X443900Y269800D03*
X428350Y290350D03*
X431000Y289300D03*
X440600Y291500D03*
X433816Y365216D03*
X429700Y371800D03*
X440700Y372000D03*
X430500Y391750D03*
X443850Y391350D03*
X440700Y399200D03*
X433816Y399984D03*
X433900Y412500D03*
X432300Y414200D03*
X435400D03*
X430400Y419700D03*
X446470Y190530D03*
X449153Y214000D03*
X456500Y212600D03*
X459808Y215498D03*
X456200Y217700D03*
X458500Y219900D03*
X446470Y237830D03*
X448300Y235100D03*
X451200Y372000D03*
X454700Y391350D03*
X451200Y405800D03*
X445900D03*
X472970Y141184D03*
X477400Y141200D03*
X469230Y141184D03*
X478650Y154396D03*
X465600Y150400D03*
X463100Y147400D03*
X472400Y154396D03*
X475540Y198340D03*
X469241Y198241D03*
X472400Y198700D03*
X478700Y198600D03*
X472970Y212000D03*
X466547Y214600D03*
X478830Y212070D03*
X466800Y224300D03*
X477200Y225400D03*
X478700Y253600D03*
X471000Y253300D03*
X475540Y269340D03*
X469241Y269441D03*
X470461Y371939D03*
Y384261D03*
X470200Y443700D03*
X492100Y98600D03*
X480900Y141200D03*
X484989Y154396D03*
X494230Y141184D03*
X490900Y199663D03*
X494438Y198362D03*
X481800Y198300D03*
X484930Y201826D03*
X485253Y214600D03*
X494430Y212100D03*
X482000Y225503D03*
X487800Y226700D03*
X491500Y269900D03*
X494438Y269762D03*
X488700Y273000D03*
X481100Y258800D03*
X484989Y259811D03*
X484930Y272916D03*
X488139Y257400D03*
X490000Y279000D03*
X490628Y362472D03*
X497970Y141170D03*
X503887Y144213D03*
X510130Y141184D03*
X511000Y157200D03*
X511200Y180300D03*
X509200Y183700D03*
X510263Y199663D03*
X501663D03*
X498170Y212070D03*
X503887Y214587D03*
X510170Y212437D03*
X496500Y209900D03*
X507670Y273030D03*
X503930D03*
X510911Y359489D03*
X513870Y141184D03*
X519553Y143347D03*
X526000Y183500D03*
X520300D03*
X517300Y180200D03*
X514200Y183500D03*
X528800Y180100D03*
X523100Y180200D03*
X516485Y215216D03*
X525934Y215334D03*
X513350Y214950D03*
X522784Y215216D03*
X519635D03*
X529083Y215383D03*
X516500Y259700D03*
X515750Y359450D03*
X537970Y141184D03*
X534230D03*
X540500Y180100D03*
X534400Y180000D03*
X531700Y183600D03*
X537800Y183400D03*
X532233Y215433D03*
X541682Y215518D03*
X535383Y215517D03*
X538532Y215600D03*
X544832Y215632D03*
X532650Y359450D03*
X539800Y443400D03*
X547430Y141100D03*
X551030Y141070D03*
X561750Y147650D03*
X553341Y193741D03*
X557467Y216100D03*
X551130Y212370D03*
X547981Y215619D03*
X559600Y228500D03*
X563600Y232000D03*
X553715Y264847D03*
X563000Y297400D03*
X562450Y313350D03*
X550000Y315400D03*
X559650Y333050D03*
X563300Y372400D03*
X550200Y411000D03*
X558202Y415902D03*
X568050Y138850D03*
X577600Y161000D03*
X570000Y232000D03*
X576200Y231900D03*
X573300Y228700D03*
X566700Y228400D03*
X579500Y228600D03*
X578300Y372400D03*
X573400Y372200D03*
X568300Y372400D03*
Y404000D03*
X592800Y101500D03*
Y129300D03*
X585900Y228600D03*
X589300D03*
X582900Y231700D03*
X594600Y281500D03*
X584900Y297400D03*
X585650Y313350D03*
X584000Y377700D03*
Y390400D03*
X591000Y411000D03*
X583398Y415902D03*
X599150Y287850D03*
X599118Y303818D03*
X599150Y319650D03*
X626779Y359980D03*
X618100Y392900D03*
Y387600D03*
X618054Y378654D03*
X647276Y324521D03*
X641987Y382654D03*
Y390578D03*
X656500Y78572D03*
X662600Y78600D03*
X666174Y335674D03*
X658300Y356700D03*
X660035Y376265D03*
X665944Y376244D03*
X662200Y415000D03*
X667363Y81882D03*
X672473Y335727D03*
X667749Y356649D03*
X670898Y356702D03*
X680347Y356747D03*
X683497Y356697D03*
X668700Y415300D03*
X698781Y83481D03*
X685072Y335728D03*
X697670Y335670D03*
X692946Y356746D03*
X714993Y356707D03*
X732316Y324521D03*
X748261Y367261D03*
X766500Y98600D03*
X766660Y130440D03*
X766700Y137500D03*
X766652Y169148D03*
X834800Y372895D03*
G54D23*
X641371Y346200D03*
X834800Y231163D03*
G54D15*
X150000Y144480D03*
X140000D03*
Y174480D03*
X150000D03*
Y301872D03*
X140000D03*
Y331872D03*
X150000D03*
X160000Y144480D03*
Y174480D03*
X170000D03*
X160000Y301872D03*
Y331872D03*
X170000D03*
X223900Y370343D03*
X213900D03*
X220888Y433849D03*
X210888D03*
X220888Y443849D03*
X210888D03*
X233900Y370343D03*
X230888Y433849D03*
Y443849D03*
X253900Y370343D03*
X273900D03*
X263900D03*
X283900D03*
X340700Y345973D03*
X330700D03*
Y375973D03*
X340700D03*
X360700Y345973D03*
X350700D03*
Y375973D03*
X360700D03*
X487344Y372727D03*
X497344D03*
X492344Y382727D03*
X507344Y372727D03*
X502344Y382727D03*
X512344D03*
X517344Y372727D03*
X522344Y382727D03*
X834800Y337462D03*
G54D24*
X714500Y413402D03*
Y433402D03*
X734500Y413402D03*
X724500Y423402D03*
X734500Y433402D03*
X834800Y302028D03*
G54D25*
X739796Y346200D03*
X834800Y219352D03*
G54D16*
X157535Y373144D03*
X141000D03*
X157535Y394798D03*
X141000D03*
X174071Y373144D03*
Y394798D03*
X474333Y395719D03*
X535317D03*
X834800Y290218D03*
G54D17*
X407976Y424725D03*
X415850D03*
X423724D03*
X431598D03*
X834800Y361084D03*
G54D18*
X482384Y407746D03*
X527266D03*
X834800Y207541D03*
G54D19*
X478742Y427018D03*
X488742D03*
X520908D03*
X530908D03*
X834800Y313840D03*
M02*
