G04 ================== begin FILE IDENTIFICATION RECORD ==================*
G04 Layout Name:  D:/documents/Allegro_PRJ/BSMU/GERBER6/PCB/bsmu_h750_v1.0.brd*
G04 Film Name:    SILKBOTTOM*
G04 File Format:  Gerber RS274X*
G04 File Origin:  Cadence Allegro 17.4-S026*
G04 Origin Date:  Mon May 15 17:11:30 2023*
G04 *
G04 Layer:  REF DES/SILKSCREEN_BOTTOM*
G04 Layer:  PACKAGE GEOMETRY/SILKSCREEN_BOTTOM*
G04 Layer:  BOARD GEOMETRY/SILKSCREEN_BOTTOM*
G04 Layer:  BOARD GEOMETRY/DESIGN_OUTLINE*
G04 *
G04 Offset:    (0.000 0.000)*
G04 Mirror:    No*
G04 Mode:      Positive*
G04 Rotation:  0*
G04 FullContactRelief:  No*
G04 UndefLineWidth:     0.000*
G04 ================== end FILE IDENTIFICATION RECORD ====================*
%FSLAX55Y55*MOIN*%
%IR0*IPPOS*OFA0.00000B0.00000*MIA0B0*SFA1.00000B1.00000*%
%ADD10C,.004*%
%ADD11C,.006*%
%ADD12C,.005906*%
G75*
%LPD*%
G75*
G54D10*
G01X102667Y155892D02*
X102867Y156017D01*
X103100Y156100D01*
X103367D01*
X103667Y155975D01*
X103900Y155767D01*
X104067Y155517D01*
X104200Y155100D01*
X104233Y154725D01*
X104167Y154350D01*
X104067Y154100D01*
X103867Y153850D01*
X103633Y153683D01*
X103400Y153600D01*
X103167D01*
X102933Y153683D01*
X102733Y153808D01*
X102567Y153975D01*
G01X102133Y153600D02*
X101300Y156100D01*
X100467Y153600D01*
G01X100767Y154475D02*
X101833D01*
G01X99967Y153600D02*
Y156100D01*
X98433Y153600D01*
Y156100D01*
G01X98100Y152767D02*
X96100D01*
G01X94800Y154850D02*
X94133D01*
Y154100D01*
X94333Y153850D01*
X94567Y153683D01*
X94900Y153600D01*
X95233Y153683D01*
X95467Y153850D01*
X95667Y154100D01*
X95800Y154392D01*
X95867Y154725D01*
Y155017D01*
X95800Y155267D01*
X95667Y155558D01*
X95467Y155808D01*
X95267Y155975D01*
X95000Y156100D01*
X94767D01*
X94500Y156017D01*
X94300Y155850D01*
G01X102667Y166992D02*
X102867Y167117D01*
X103100Y167200D01*
X103367D01*
X103667Y167075D01*
X103900Y166867D01*
X104067Y166617D01*
X104200Y166200D01*
X104233Y165825D01*
X104167Y165450D01*
X104067Y165200D01*
X103867Y164950D01*
X103633Y164783D01*
X103400Y164700D01*
X103167D01*
X102933Y164783D01*
X102733Y164908D01*
X102567Y165075D01*
G01X102133Y164700D02*
X101300Y167200D01*
X100467Y164700D01*
G01X100767Y165575D02*
X101833D01*
G01X99967Y164700D02*
Y167200D01*
X98433Y164700D01*
Y167200D01*
G01X98100Y163867D02*
X96100D01*
G01X95700Y164700D02*
Y167200D01*
G01X94300D02*
Y164700D01*
G01Y165950D02*
X95700D01*
G01X102567Y311692D02*
X102767Y311817D01*
X103000Y311900D01*
X103267D01*
X103567Y311775D01*
X103800Y311567D01*
X103967Y311317D01*
X104100Y310900D01*
X104133Y310525D01*
X104067Y310150D01*
X103967Y309900D01*
X103767Y309650D01*
X103533Y309483D01*
X103300Y309400D01*
X103067D01*
X102833Y309483D01*
X102633Y309608D01*
X102467Y309775D01*
G01X102033Y309400D02*
X101200Y311900D01*
X100367Y309400D01*
G01X100667Y310275D02*
X101733D01*
G01X99867Y309400D02*
Y311900D01*
X98333Y309400D01*
Y311900D01*
G01X98000Y308567D02*
X96000D01*
G01X94700Y310650D02*
X94033D01*
Y309900D01*
X94233Y309650D01*
X94467Y309483D01*
X94800Y309400D01*
X95133Y309483D01*
X95367Y309650D01*
X95567Y309900D01*
X95700Y310192D01*
X95767Y310525D01*
Y310817D01*
X95700Y311067D01*
X95567Y311358D01*
X95367Y311608D01*
X95167Y311775D01*
X94900Y311900D01*
X94667D01*
X94400Y311817D01*
X94200Y311650D01*
G01X102567Y322892D02*
X102767Y323017D01*
X103000Y323100D01*
X103267D01*
X103567Y322975D01*
X103800Y322767D01*
X103967Y322517D01*
X104100Y322100D01*
X104133Y321725D01*
X104067Y321350D01*
X103967Y321100D01*
X103767Y320850D01*
X103533Y320683D01*
X103300Y320600D01*
X103067D01*
X102833Y320683D01*
X102633Y320808D01*
X102467Y320975D01*
G01X102033Y320600D02*
X101200Y323100D01*
X100367Y320600D01*
G01X100667Y321475D02*
X101733D01*
G01X99867Y320600D02*
Y323100D01*
X98333Y320600D01*
Y323100D01*
G01X98000Y319767D02*
X96000D01*
G01X95600Y320600D02*
Y323100D01*
G01X94200D02*
Y320600D01*
G01Y321850D02*
X95600D01*
G01X131767Y161492D02*
X131967Y161617D01*
X132200Y161700D01*
X132467D01*
X132767Y161575D01*
X133000Y161367D01*
X133167Y161117D01*
X133300Y160700D01*
X133333Y160325D01*
X133267Y159950D01*
X133167Y159700D01*
X132967Y159450D01*
X132733Y159283D01*
X132500Y159200D01*
X132267D01*
X132033Y159283D01*
X131833Y159408D01*
X131667Y159575D01*
G01X131233Y159200D02*
X130400Y161700D01*
X129567Y159200D01*
G01X129867Y160075D02*
X130933D01*
G01X129067Y159200D02*
Y161700D01*
X127533Y159200D01*
Y161700D01*
G01X127200Y158367D02*
X125200D01*
G01X124767Y161700D02*
Y159200D01*
X123433D01*
G01X131567Y317292D02*
X131767Y317417D01*
X132000Y317500D01*
X132267D01*
X132567Y317375D01*
X132800Y317167D01*
X132967Y316917D01*
X133100Y316500D01*
X133133Y316125D01*
X133067Y315750D01*
X132967Y315500D01*
X132767Y315250D01*
X132533Y315083D01*
X132300Y315000D01*
X132067D01*
X131833Y315083D01*
X131633Y315208D01*
X131467Y315375D01*
G01X131033Y315000D02*
X130200Y317500D01*
X129367Y315000D01*
G01X129667Y315875D02*
X130733D01*
G01X128867Y315000D02*
Y317500D01*
X127333Y315000D01*
Y317500D01*
G01X127000Y314167D02*
X125000D01*
G01X124567Y317500D02*
Y315000D01*
X123233D01*
G54D11*
G01X146208Y386900D02*
X144750Y382400D01*
X143292Y386900D01*
G01X141850D02*
X140450D01*
G01X141150D02*
Y382400D01*
G01X141850D02*
X140450D01*
G01X138892D02*
Y386900D01*
X136208Y382400D01*
Y386900D01*
G01X160700Y384450D02*
X159533D01*
Y383100D01*
X159883Y382650D01*
X160292Y382350D01*
X160875Y382200D01*
X161458Y382350D01*
X161867Y382650D01*
X162217Y383100D01*
X162450Y383625D01*
X162567Y384225D01*
Y384750D01*
X162450Y385200D01*
X162217Y385725D01*
X161867Y386175D01*
X161517Y386475D01*
X161050Y386700D01*
X160642D01*
X160175Y386550D01*
X159825Y386250D01*
G01X158792Y382200D02*
Y386700D01*
X156108Y382200D01*
Y386700D01*
G01X155133Y382200D02*
Y386700D01*
X153967D01*
X153500Y386475D01*
X153150Y386175D01*
X152858Y385725D01*
X152625Y385200D01*
X152567Y384450D01*
X152625Y383700D01*
X152858Y383175D01*
X153150Y382725D01*
X153500Y382425D01*
X153967Y382200D01*
X155133D01*
G01X177417Y382300D02*
Y386800D01*
X176017D01*
X175550Y386575D01*
X175200Y386050D01*
X175083Y385450D01*
X175200Y384850D01*
X175492Y384400D01*
X176017Y384175D01*
X177417D01*
G01X171483Y382300D02*
X173817D01*
Y386800D01*
X171483D01*
G01X172417Y384625D02*
X173817D01*
G01X299608Y397600D02*
X298150Y402100D01*
X296692Y397600D01*
G01X297217Y399175D02*
X299083D01*
G01X308383Y400000D02*
X308150Y400225D01*
X307975Y400600D01*
X307858Y401125D01*
X307975Y401575D01*
X308208Y401875D01*
X308617Y402100D01*
X310192D01*
Y397600D01*
X308267D01*
X307858Y397900D01*
X307625Y398350D01*
X307508Y398875D01*
X307625Y399400D01*
X307975Y399850D01*
X308383Y400000D01*
X310192D01*
G01X341800Y399750D02*
X340633D01*
Y398400D01*
X340983Y397950D01*
X341392Y397650D01*
X341975Y397500D01*
X342558Y397650D01*
X342967Y397950D01*
X343317Y398400D01*
X343550Y398925D01*
X343667Y399525D01*
Y400050D01*
X343550Y400500D01*
X343317Y401025D01*
X342967Y401475D01*
X342617Y401775D01*
X342150Y402000D01*
X341742D01*
X341275Y401850D01*
X340925Y401550D01*
G54D12*
G01X133000Y367144D02*
Y401144D01*
X182000D01*
Y367144D01*
X133000D01*
G01X149000Y398644D02*
Y369644D01*
G01X166000Y398644D02*
Y369644D01*
M02*
