G04 ================== begin FILE IDENTIFICATION RECORD ==================*
G04 Layout Name:  D:/documents/Allegro_PRJ/BSMU/GERBER6/PCB/bsmu_h750_v1.0.brd*
G04 Film Name:    SOLDBOTTOM*
G04 File Format:  Gerber RS274X*
G04 File Origin:  Cadence Allegro 17.4-S026*
G04 Origin Date:  Mon May 15 17:11:30 2023*
G04 *
G04 Layer:  VIA CLASS/SOLDERMASK_BOTTOM*
G04 Layer:  PIN/SOLDERMASK_BOTTOM*
G04 Layer:  PACKAGE GEOMETRY/SOLDERMASK_BOTTOM*
G04 Layer:  BOARD GEOMETRY/SOLDERMASK_BOTTOM*
G04 Layer:  BOARD GEOMETRY/DESIGN_OUTLINE*
G04 *
G04 Offset:    (0.000 0.000)*
G04 Mirror:    No*
G04 Mode:      Positive*
G04 Rotation:  0*
G04 FullContactRelief:  No*
G04 UndefLineWidth:     0.000*
G04 ================== end FILE IDENTIFICATION RECORD ====================*
%FSLAX55Y55*MOIN*%
%IR0*IPPOS*OFA0.00000B0.00000*MIA0B0*SFA1.00000B1.00000*%
%ADD14R,.068898X.068898*%
%ADD13C,.102362*%
%ADD10C,.200787*%
%ADD19C,.106299*%
%ADD18O,.043311X.08661*%
%ADD15C,.057091*%
%ADD11C,.074803*%
%ADD17C,.076772*%
%ADD16R,.057091X.057091*%
%ADD20C,.082677*%
%ADD12C,.068898*%
G75*
%LPD*%
G75*
G36*
G01X106558Y72300D02*
G03I-15158J0D01*
G37*
G36*
G01Y433100D02*
G03I-15158J0D01*
G37*
G36*
G01X785158Y72300D02*
G03I-15158J0D01*
G37*
G36*
G01X785258Y433100D02*
G03I-15157J0D01*
G37*
G54D10*
X113837Y122284D03*
Y220709D03*
Y278134D03*
Y376559D03*
X270787Y412000D03*
X369213D03*
G54D20*
X714500Y413402D03*
Y433402D03*
X734500Y413402D03*
X724500Y423402D03*
X734500Y433402D03*
G54D11*
X108246Y155138D03*
X119428Y149686D03*
X108246Y166044D03*
X119428Y171497D03*
Y160591D03*
X108246Y187855D03*
Y176950D03*
X119428Y182402D03*
Y193308D03*
Y305536D03*
X108246Y321894D03*
Y310988D03*
X119428Y327347D03*
Y316441D03*
X108246Y343705D03*
Y332799D03*
X119428Y338252D03*
Y349158D03*
X309094Y406409D03*
X298189D03*
X303642Y417591D03*
X320000Y406409D03*
X325453Y417591D03*
X314547D03*
X341811Y406409D03*
X330906D03*
X336358Y417591D03*
X718900Y68226D03*
Y83974D03*
G54D12*
X150000Y144480D03*
X140000D03*
Y174480D03*
X150000D03*
Y301872D03*
X140000D03*
Y331872D03*
X150000D03*
X160000Y144480D03*
Y174480D03*
X170000D03*
X160000Y301872D03*
Y331872D03*
X170000D03*
X223900Y370343D03*
X220888Y433849D03*
X210888D03*
X220888Y443849D03*
X233900Y370343D03*
X230888Y433849D03*
Y443849D03*
X253900Y370343D03*
X273900D03*
X263900D03*
X283900D03*
X340700Y345973D03*
X330700D03*
Y375973D03*
X340700D03*
X360700Y345973D03*
X350700D03*
Y375973D03*
X360700D03*
X487344Y372727D03*
X497344D03*
X492344Y382727D03*
X507344Y372727D03*
X502344Y382727D03*
X512344D03*
X517344Y372727D03*
X522344Y382727D03*
G54D13*
X157535Y373144D03*
X141000D03*
X157535Y394798D03*
X141000D03*
X174071Y373144D03*
Y394798D03*
X474333Y395719D03*
X535317D03*
G54D14*
X213900Y370343D03*
X210888Y443849D03*
G54D15*
X407976Y424725D03*
X415850D03*
X423724D03*
G54D16*
X431598D03*
G54D17*
X478742Y427018D03*
X488742D03*
X520908D03*
X530908D03*
G54D18*
X553788Y422026D03*
Y438365D03*
X587812Y422026D03*
Y438365D03*
G54D19*
X642158Y157027D03*
X739009D03*
M02*
